<?xml version="1.0" encoding="utf-8"?>
<svg xmlns="http://www.w3.org/2000/svg" style="margin: auto; background: rgb(255, 251, 243); display: block; shape-rendering: auto;" width="280" height="1174" preserveAspectRatio="xMidYMid">
<style type="text/css">
  text {
    text-anchor: middle; font-size: 94px; opacity: 0;
  }
</style>
<g style="transform-origin: 140px 587px; transform: scale(4.27273);">
<g transform="translate(140,587)">
  <g transform="translate(0,0)"><g class="path" style="transform: scale(1); transform-origin: -339.29px 3.75422px; animation: 1s linear -0.646531s infinite normal forwards running beat-edd8823a-9da8-48f0-a28a-26c0fd05a4fe;"><path d="M10.11-12.41L12.62-12.41L8.11-1.49L8.11-1.49Q7.34 0.38 6.39 2.21L6.39 2.21L6.39 2.21Q5.44 4.04 4.33 5.73L4.33 5.73L2.91 4.87L2.91 4.87Q3.18 4.38 3.54 3.75L3.54 3.75L3.54 3.75Q3.91 3.12 4.26 2.44L4.26 2.44L4.26 2.44Q4.62 1.76 4.92 1.10L4.92 1.10L4.92 1.10Q5.22 0.44 5.38-0.11L5.38-0.11L-0.04-12.41L3.59-12.41L7.27-4.02L10.11-12.41" fill="#51cacc" stroke="none" stroke-width="none" transform="translate(-345.5800356864929,7.094220907055601)" style="fill: rgb(81, 202, 204);"></path></g><g class="path" style="transform: scale(1); transform-origin: -325.55px 0.864222px; animation: 1s linear -0.633061s infinite normal forwards running beat-edd8823a-9da8-48f0-a28a-26c0fd05a4fe;"><path d="M26.95-6.23L26.95-6.23L26.95-6.23Q26.95-5.26 26.69-4.42L26.69-4.42L26.69-4.42Q26.44-3.57 25.98-2.85L25.98-2.85L25.98-2.85Q25.52-2.13 24.88-1.55L24.88-1.55L24.88-1.55Q24.23-0.98 23.47-0.58L23.47-0.58L23.47-0.58Q22.70-0.18 21.82 0.03L21.82 0.03L21.82 0.03Q20.95 0.25 20.02 0.25L20.02 0.25L20.02 0.25Q19.10 0.25 18.23 0.03L18.23 0.03L18.23 0.03Q17.36-0.18 16.59-0.58L16.59-0.58L16.59-0.58Q15.82-0.98 15.18-1.55L15.18-1.55L15.18-1.55Q14.53-2.13 14.08-2.85L14.08-2.85L14.08-2.85Q13.62-3.57 13.36-4.42L13.36-4.42L13.36-4.42Q13.11-5.27 13.11-6.23L13.11-6.23L13.11-6.23Q13.11-7.19 13.36-8.04L13.36-8.04L13.36-8.04Q13.62-8.89 14.08-9.61L14.08-9.61L14.08-9.61Q14.53-10.33 15.18-10.91L15.18-10.91L15.18-10.91Q15.82-11.48 16.59-11.88L16.59-11.88L16.59-11.88Q17.36-12.28 18.23-12.49L18.23-12.49L18.23-12.49Q19.10-12.71 20.02-12.71L20.02-12.71L20.02-12.71Q20.95-12.71 21.82-12.49L21.82-12.49L21.82-12.49Q22.70-12.28 23.47-11.88L23.47-11.88L23.47-11.88Q24.23-11.48 24.88-10.91L24.88-10.91L24.88-10.91Q25.52-10.33 25.98-9.61L25.98-9.61L25.98-9.61Q26.44-8.89 26.69-8.04L26.69-8.04L26.69-8.04Q26.95-7.19 26.95-6.23zM23.26-6.23L23.26-6.23L23.26-6.23Q23.26-6.75 23.20-7.32L23.20-7.32L23.20-7.32Q23.14-7.90 23.00-8.45L23.00-8.45L23.00-8.45Q22.86-9.00 22.62-9.51L22.62-9.51L22.62-9.51Q22.38-10.02 22.02-10.40L22.02-10.40L22.02-10.40Q21.67-10.79 21.17-11.02L21.17-11.02L21.17-11.02Q20.68-11.25 20.02-11.25L20.02-11.25L20.02-11.25Q19.40-11.25 18.92-11.01L18.92-11.01L18.92-11.01Q18.43-10.77 18.07-10.38L18.07-10.38L18.07-10.38Q17.71-9.99 17.47-9.47L17.47-9.47L17.47-9.47Q17.23-8.96 17.08-8.41L17.08-8.41L17.08-8.41Q16.93-7.85 16.87-7.29L16.87-7.29L16.87-7.29Q16.80-6.72 16.80-6.23L16.80-6.23L16.80-6.23Q16.80-5.74 16.87-5.17L16.87-5.17L16.87-5.17Q16.93-4.61 17.08-4.05L17.08-4.05L17.08-4.05Q17.23-3.49 17.47-2.98L17.47-2.98L17.47-2.98Q17.71-2.47 18.07-2.08L18.07-2.08L18.07-2.08Q18.43-1.69 18.92-1.45L18.92-1.45L18.92-1.45Q19.40-1.21 20.02-1.21L20.02-1.21L20.02-1.21Q20.67-1.21 21.16-1.44L21.16-1.44L21.16-1.44Q21.66-1.68 22.02-2.06L22.02-2.06L22.02-2.06Q22.38-2.45 22.61-2.95L22.61-2.95L22.61-2.95Q22.85-3.46 22.99-4.02L22.99-4.02L22.99-4.02Q23.14-4.58 23.20-5.15L23.20-5.15L23.20-5.15Q23.26-5.71 23.26-6.23" fill="#51cacc" stroke="none" stroke-width="none" transform="translate(-345.5800356864929,7.094220907055601)" style="fill: rgb(157, 248, 113);"></path></g><g class="path" style="transform: scale(1); transform-origin: -310.63px 1.03422px; animation: 1s linear -0.619592s infinite normal forwards running beat-edd8823a-9da8-48f0-a28a-26c0fd05a4fe;"><path d="M28.61-5.31L28.61-5.31L28.61-5.31Q28.61-6.16 28.75-7.07L28.75-7.07L28.75-7.07Q28.90-7.98 29.17-8.89L29.17-8.89L29.17-8.89Q29.44-9.81 29.83-10.70L29.83-10.70L29.83-10.70Q30.22-11.59 30.70-12.41L30.70-12.41L33.35-12.41L33.35-12.41Q33.09-11.60 32.88-10.73L32.88-10.73L32.88-10.73Q32.67-9.85 32.52-8.98L32.52-8.98L32.52-8.98Q32.38-8.10 32.30-7.26L32.30-7.26L32.30-7.26Q32.22-6.42 32.22-5.70L32.22-5.70L32.22-5.70Q32.22-5.29 32.25-4.81L32.25-4.81L32.25-4.81Q32.29-4.33 32.39-3.85L32.39-3.85L32.39-3.85Q32.48-3.37 32.66-2.93L32.66-2.93L32.66-2.93Q32.84-2.49 33.12-2.15L33.12-2.15L33.12-2.15Q33.40-1.82 33.80-1.62L33.80-1.62L33.80-1.62Q34.20-1.42 34.75-1.42L34.75-1.42L34.75-1.42Q35.29-1.42 35.71-1.66L35.71-1.66L35.71-1.66Q36.14-1.90 36.46-2.29L36.46-2.29L36.46-2.29Q36.78-2.69 37.01-3.19L37.01-3.19L37.01-3.19Q37.23-3.70 37.38-4.23L37.38-4.23L37.38-4.23Q37.52-4.76 37.59-5.27L37.59-5.27L37.59-5.27Q37.66-5.78 37.66-6.19L37.66-6.19L37.66-12.41L41.29-12.41L41.29 0L39.90 0L38.23-2.89L38.23-2.89Q37.92-2.17 37.47-1.58L37.47-1.58L37.47-1.58Q37.03-1.00 36.46-0.58L36.46-0.58L36.46-0.58Q35.89-0.16 35.20 0.06L35.20 0.06L35.20 0.06Q34.50 0.29 33.70 0.29L33.70 0.29L33.70 0.29Q32.41 0.29 31.45-0.13L31.45-0.13L31.45-0.13Q30.50-0.55 29.86-1.29L29.86-1.29L29.86-1.29Q29.23-2.03 28.92-3.06L28.92-3.06L28.92-3.06Q28.61-4.08 28.61-5.31" fill="#51cacc" stroke="none" stroke-width="none" transform="translate(-345.5800356864929,7.094220907055601)" style="fill: rgb(224, 255, 119);"></path></g><g class="path" style="transform: scale(1); transform-origin: -288.685px -0.0707788px; animation: 1s linear -0.606122s infinite normal forwards running beat-edd8823a-9da8-48f0-a28a-26c0fd05a4fe;"><path d="M63.24-7.11L63.24-7.11L63.24-7.11Q63.24-5.85 62.93-4.49L62.93-4.49L62.93-4.49Q62.63-3.13 62.08-1.82L62.08-1.82L62.08-1.82Q61.53-0.50 60.77 0.65L60.77 0.65L60.77 0.65Q60.01 1.80 59.09 2.64L59.09 2.64L57.73 1.90L57.73 1.90Q58.02 1.36 58.28 0.70L58.28 0.70L58.28 0.70Q58.53 0.03 58.74-0.71L58.74-0.71L58.74-0.71Q58.95-1.46 59.12-2.26L59.12-2.26L59.12-2.26Q59.29-3.05 59.40-3.83L59.40-3.83L59.40-3.83Q59.51-4.61 59.57-5.34L59.57-5.34L59.57-5.34Q59.63-6.08 59.63-6.71L59.63-6.71L59.63-6.71Q59.63-7.13 59.60-7.61L59.60-7.61L59.60-7.61Q59.57-8.09 59.46-8.57L59.46-8.57L59.46-8.57Q59.36-9.04 59.19-9.49L59.19-9.49L59.19-9.49Q59.02-9.93 58.73-10.26L58.73-10.26L58.73-10.26Q58.45-10.59 58.05-10.80L58.05-10.80L58.05-10.80Q57.64-11 57.09-11L57.09-11L57.09-11Q56.56-11 56.14-10.76L56.14-10.76L56.14-10.76Q55.72-10.52 55.40-10.12L55.40-10.12L55.40-10.12Q55.08-9.73 54.84-9.23L54.84-9.23L54.84-9.23Q54.61-8.72 54.47-8.19L54.47-8.19L54.47-8.19Q54.32-7.66 54.26-7.14L54.26-7.14L54.26-7.14Q54.19-6.63 54.19-6.22L54.19-6.22L54.19 0L50.55 0L50.55-16.97L54.18-16.97L54.18-10.58L54.18-10.58Q54.88-11.60 55.90-12.15L55.90-12.15L55.90-12.15Q56.91-12.71 58.15-12.71L58.15-12.71L58.15-12.71Q59.44-12.71 60.39-12.29L60.39-12.29L60.39-12.29Q61.35-11.87 61.98-11.12L61.98-11.12L61.98-11.12Q62.62-10.38 62.93-9.35L62.93-9.35L62.93-9.35Q63.24-8.33 63.24-7.11" fill="#51cacc" stroke="none" stroke-width="none" transform="translate(-345.5800356864929,7.094220907055601)" style="fill: rgb(222, 157, 214);"></path></g><g class="path" style="transform: scale(1); transform-origin: -274.045px 0.864222px; animation: 1s linear -0.592653s infinite normal forwards running beat-edd8823a-9da8-48f0-a28a-26c0fd05a4fe;"><path d="M78.13-12.41L78.13 0L74.50 0L74.50-1.48L74.50-1.48Q73.85-0.60 72.94-0.18L72.94-0.18L72.94-0.18Q72.04 0.25 70.95 0.25L70.95 0.25L70.95 0.25Q69.53 0.25 68.42-0.26L68.42-0.26L68.42-0.26Q67.30-0.76 66.53-1.64L66.53-1.64L66.53-1.64Q65.75-2.51 65.34-3.70L65.34-3.70L65.34-3.70Q64.94-4.88 64.94-6.23L64.94-6.23L64.94-6.23Q64.94-7.58 65.34-8.77L65.34-8.77L65.34-8.77Q65.75-9.95 66.53-10.82L66.53-10.82L66.53-10.82Q67.30-11.70 68.42-12.20L68.42-12.20L68.42-12.20Q69.53-12.71 70.95-12.71L70.95-12.71L70.95-12.71Q71.67-12.71 72.32-12.49L72.32-12.49L72.32-12.49Q72.97-12.28 73.51-11.89L73.51-11.89L73.51-11.89Q74.06-11.49 74.47-10.94L74.47-10.94L74.47-10.94Q74.88-10.39 75.12-9.71L75.12-9.71L76.73-12.41L78.13-12.41zM74.48-6.23L74.48-6.23L74.48-6.23Q74.48-6.71 74.43-7.25L74.43-7.25L74.43-7.25Q74.38-7.79 74.26-8.31L74.26-8.31L74.26-8.31Q74.14-8.84 73.93-9.32L73.93-9.32L73.93-9.32Q73.72-9.80 73.40-10.17L73.40-10.17L73.40-10.17Q73.07-10.54 72.61-10.75L72.61-10.75L72.61-10.75Q72.14-10.97 71.53-10.97L71.53-10.97L71.53-10.97Q70.92-10.97 70.47-10.75L70.47-10.75L70.47-10.75Q70.02-10.53 69.70-10.16L69.70-10.16L69.70-10.16Q69.37-9.79 69.16-9.30L69.16-9.30L69.16-9.30Q68.95-8.82 68.84-8.29L68.84-8.29L68.84-8.29Q68.72-7.77 68.67-7.23L68.67-7.23L68.67-7.23Q68.62-6.70 68.62-6.23L68.62-6.23L68.62-6.23Q68.62-5.76 68.67-5.22L68.67-5.22L68.67-5.22Q68.72-4.68 68.84-4.16L68.84-4.16L68.84-4.16Q68.95-3.63 69.16-3.15L69.16-3.15L69.16-3.15Q69.37-2.66 69.70-2.29L69.70-2.29L69.70-2.29Q70.02-1.92 70.47-1.70L70.47-1.70L70.47-1.70Q70.92-1.48 71.53-1.48L71.53-1.48L71.53-1.48Q72.09-1.48 72.53-1.71L72.53-1.71L72.53-1.71Q72.96-1.94 73.29-2.33L73.29-2.33L73.29-2.33Q73.62-2.72 73.84-3.21L73.84-3.21L73.84-3.21Q74.07-3.71 74.21-4.23L74.21-4.23L74.21-4.23Q74.35-4.76 74.41-5.28L74.41-5.28L74.41-5.28Q74.48-5.80 74.48-6.23" fill="#51cacc" stroke="none" stroke-width="none" transform="translate(-345.5800356864929,7.094220907055601)" style="fill: rgb(255, 112, 142);"></path></g><g class="path" style="transform: scale(1); transform-origin: -259.485px 0.889222px; animation: 1s linear -0.579184s infinite normal forwards running beat-edd8823a-9da8-48f0-a28a-26c0fd05a4fe;"><path d="M92.43-12.41L87.54 0L84.27 0L79.76-12.41L83.39-12.41L86.70-2.52L89.91-12.41L92.43-12.41" fill="#51cacc" stroke="none" stroke-width="none" transform="translate(-345.5800356864929,7.094220907055601)" style="fill: rgb(81, 202, 204);"></path></g><g class="path" style="transform: scale(1); transform-origin: -246.255px 0.864222px; animation: 1s linear -0.565714s infinite normal forwards running beat-edd8823a-9da8-48f0-a28a-26c0fd05a4fe;"><path d="M96.70-5.89L96.70-5.89L96.70-5.89Q97.37-5.74 98.03-5.65L98.03-5.65L98.03-5.65Q98.70-5.56 99.38-5.56L99.38-5.56L99.38-5.56Q100.08-5.56 100.69-5.70L100.69-5.70L100.69-5.70Q101.30-5.83 101.74-6.15L101.74-6.15L101.74-6.15Q102.19-6.47 102.45-6.99L102.45-6.99L102.45-6.99Q102.71-7.52 102.71-8.30L102.71-8.30L102.71-8.30Q102.71-8.94 102.53-9.46L102.53-9.46L102.53-9.46Q102.36-9.99 102.02-10.37L102.02-10.37L102.02-10.37Q101.69-10.74 101.19-10.95L101.19-10.95L101.19-10.95Q100.70-11.16 100.04-11.16L100.04-11.16L100.04-11.16Q99.43-11.16 98.94-10.94L98.94-10.94L98.94-10.94Q98.45-10.71 98.08-10.33L98.08-10.33L98.08-10.33Q97.71-9.95 97.45-9.44L97.45-9.44L97.45-9.44Q97.18-8.94 97.01-8.39L97.01-8.39L97.01-8.39Q96.84-7.84 96.77-7.28L96.77-7.28L96.77-7.28Q96.69-6.72 96.69-6.23L96.69-6.23L96.69-6.23Q96.69-6.14 96.69-6.06L96.69-6.06L96.69-6.06Q96.69-5.97 96.70-5.89zM105.65-8.34L105.65-8.34L105.65-8.34Q105.65-7.57 105.40-6.98L105.40-6.98L105.40-6.98Q105.16-6.38 104.73-5.93L104.73-5.93L104.73-5.93Q104.31-5.48 103.75-5.17L103.75-5.17L103.75-5.17Q103.19-4.86 102.56-4.66L102.56-4.66L102.56-4.66Q101.92-4.46 101.25-4.37L101.25-4.37L101.25-4.37Q100.58-4.29 99.95-4.29L99.95-4.29L99.95-4.29Q99.14-4.29 98.36-4.40L98.36-4.40L98.36-4.40Q97.57-4.51 96.81-4.76L96.81-4.76L96.81-4.76Q96.93-4.05 97.18-3.41L97.18-3.41L97.18-3.41Q97.44-2.77 97.87-2.29L97.87-2.29L97.87-2.29Q98.30-1.82 98.93-1.54L98.93-1.54L98.93-1.54Q99.56-1.26 100.42-1.26L100.42-1.26L100.42-1.26Q100.99-1.26 101.50-1.43L101.50-1.43L101.50-1.43Q102.02-1.60 102.45-1.91L102.45-1.91L102.45-1.91Q102.88-2.22 103.21-2.65L103.21-2.65L103.21-2.65Q103.53-3.08 103.74-3.61L103.74-3.61L105.31-3.03L105.31-3.03Q104.95-2.18 104.33-1.56L104.33-1.56L104.33-1.56Q103.72-0.95 102.94-0.54L102.94-0.54L102.94-0.54Q102.16-0.14 101.28 0.05L101.28 0.05L101.28 0.05Q100.41 0.25 99.55 0.25L99.55 0.25L99.55 0.25Q98.13 0.25 96.93-0.23L96.93-0.23L96.93-0.23Q95.72-0.71 94.85-1.57L94.85-1.57L94.85-1.57Q93.98-2.43 93.49-3.62L93.49-3.62L93.49-3.62Q93.00-4.81 93.00-6.23L93.00-6.23L93.00-6.23Q93.00-7.65 93.49-8.84L93.49-8.84L93.49-8.84Q93.98-10.03 94.85-10.89L94.85-10.89L94.85-10.89Q95.72-11.75 96.93-12.23L96.93-12.23L96.93-12.23Q98.13-12.71 99.55-12.71L99.55-12.71L99.55-12.71Q100.24-12.71 100.96-12.61L100.96-12.61L100.96-12.61Q101.67-12.51 102.35-12.31L102.35-12.31L102.35-12.31Q103.03-12.10 103.63-11.76L103.63-11.76L103.63-11.76Q104.23-11.43 104.68-10.94L104.68-10.94L104.68-10.94Q105.12-10.45 105.39-9.81L105.39-9.81L105.39-9.81Q105.65-9.16 105.65-8.34" fill="#51cacc" stroke="none" stroke-width="none" transform="translate(-345.5800356864929,7.094220907055601)" style="fill: rgb(157, 248, 113);"></path></g><g class="path" style="transform: scale(1); transform-origin: -224.835px -1.24578px; animation: 1s linear -0.552245s infinite normal forwards running beat-edd8823a-9da8-48f0-a28a-26c0fd05a4fe;"><path d="M127.34-6.19L127.34-6.19L127.34-6.19Q127.34-4.83 126.93-3.65L126.93-3.65L126.93-3.65Q126.52-2.47 125.75-1.60L125.75-1.60L125.75-1.60Q124.97-0.72 123.86-0.21L123.86-0.21L123.86-0.21Q122.74 0.29 121.32 0.29L121.32 0.29L121.32 0.29Q120.60 0.29 119.95 0.08L119.95 0.08L119.95 0.08Q119.30-0.14 118.76-0.53L118.76-0.53L118.76-0.53Q118.22-0.92 117.80-1.47L117.80-1.47L117.80-1.47Q117.39-2.02 117.15-2.70L117.15-2.70L115.54 0L114.15 0L114.15-16.97L117.78-16.97L117.78-10.92L117.78-10.92Q118.42-11.82 119.33-12.24L119.33-12.24L119.33-12.24Q120.24-12.65 121.32-12.65L121.32-12.65L121.32-12.65Q122.74-12.65 123.86-12.15L123.86-12.15L123.86-12.15Q124.97-11.64 125.75-10.77L125.75-10.77L125.75-10.77Q126.52-9.90 126.93-8.72L126.93-8.72L126.93-8.72Q127.34-7.54 127.34-6.19zM123.65-6.19L123.65-6.19L123.65-6.19Q123.65-6.66 123.60-7.19L123.60-7.19L123.60-7.19Q123.56-7.72 123.44-8.25L123.44-8.25L123.44-8.25Q123.32-8.78 123.11-9.26L123.11-9.26L123.11-9.26Q122.90-9.74 122.58-10.11L122.58-10.11L122.58-10.11Q122.26-10.48 121.81-10.70L121.81-10.70L121.81-10.70Q121.35-10.92 120.74-10.92L120.74-10.92L120.74-10.92Q120.18-10.92 119.75-10.69L119.75-10.69L119.75-10.69Q119.31-10.46 118.99-10.08L118.99-10.08L118.99-10.08Q118.66-9.69 118.43-9.20L118.43-9.20L118.43-9.20Q118.21-8.70 118.07-8.17L118.07-8.17L118.07-8.17Q117.93-7.65 117.86-7.13L117.86-7.13L117.86-7.13Q117.80-6.62 117.80-6.19L117.80-6.19L117.80-6.19Q117.80-5.70 117.85-5.17L117.85-5.17L117.85-5.17Q117.90-4.63 118.01-4.10L118.01-4.10L118.01-4.10Q118.13-3.57 118.34-3.09L118.34-3.09L118.34-3.09Q118.55-2.61 118.88-2.24L118.88-2.24L118.88-2.24Q119.21-1.87 119.66-1.65L119.66-1.65L119.66-1.65Q120.12-1.44 120.74-1.44L120.74-1.44L120.74-1.44Q121.34-1.44 121.80-1.66L121.80-1.66L121.80-1.66Q122.26-1.88 122.58-2.25L122.58-2.25L122.58-2.25Q122.90-2.62 123.11-3.11L123.11-3.11L123.11-3.11Q123.32-3.60 123.44-4.13L123.44-4.13L123.44-4.13Q123.56-4.65 123.60-5.18L123.60-5.18L123.60-5.18Q123.65-5.71 123.65-6.19" fill="#51cacc" stroke="none" stroke-width="none" transform="translate(-345.5800356864929,7.094220907055601)" style="fill: rgb(224, 255, 119);"></path></g><g class="path" style="transform: scale(1); transform-origin: -210.295px 0.864222px; animation: 1s linear -0.538776s infinite normal forwards running beat-edd8823a-9da8-48f0-a28a-26c0fd05a4fe;"><path d="M132.67-5.89L132.67-5.89L132.67-5.89Q133.33-5.74 134.00-5.65L134.00-5.65L134.00-5.65Q134.66-5.56 135.34-5.56L135.34-5.56L135.34-5.56Q136.05-5.56 136.66-5.70L136.66-5.70L136.66-5.70Q137.26-5.83 137.71-6.15L137.71-6.15L137.71-6.15Q138.16-6.47 138.41-6.99L138.41-6.99L138.41-6.99Q138.67-7.52 138.67-8.30L138.67-8.30L138.67-8.30Q138.67-8.94 138.50-9.46L138.50-9.46L138.50-9.46Q138.33-9.99 137.99-10.37L137.99-10.37L137.99-10.37Q137.65-10.74 137.16-10.95L137.16-10.95L137.16-10.95Q136.66-11.16 136.01-11.16L136.01-11.16L136.01-11.16Q135.39-11.16 134.91-10.94L134.91-10.94L134.91-10.94Q134.42-10.71 134.05-10.33L134.05-10.33L134.05-10.33Q133.68-9.95 133.41-9.44L133.41-9.44L133.41-9.44Q133.15-8.94 132.98-8.39L132.98-8.39L132.98-8.39Q132.81-7.84 132.73-7.28L132.73-7.28L132.73-7.28Q132.66-6.72 132.66-6.23L132.66-6.23L132.66-6.23Q132.66-6.14 132.66-6.06L132.66-6.06L132.66-6.06Q132.66-5.97 132.67-5.89zM141.61-8.34L141.61-8.34L141.61-8.34Q141.61-7.57 141.37-6.98L141.37-6.98L141.37-6.98Q141.12-6.38 140.70-5.93L140.70-5.93L140.70-5.93Q140.27-5.48 139.71-5.17L139.71-5.17L139.71-5.17Q139.15-4.86 138.52-4.66L138.52-4.66L138.52-4.66Q137.89-4.46 137.22-4.37L137.22-4.37L137.22-4.37Q136.54-4.29 135.91-4.29L135.91-4.29L135.91-4.29Q135.10-4.29 134.32-4.40L134.32-4.40L134.32-4.40Q133.54-4.51 132.77-4.76L132.77-4.76L132.77-4.76Q132.89-4.05 133.15-3.41L133.15-3.41L133.15-3.41Q133.41-2.77 133.84-2.29L133.84-2.29L133.84-2.29Q134.27-1.82 134.90-1.54L134.90-1.54L134.90-1.54Q135.52-1.26 136.38-1.26L136.38-1.26L136.38-1.26Q136.95-1.26 137.47-1.43L137.47-1.43L137.47-1.43Q137.98-1.60 138.41-1.91L138.41-1.91L138.41-1.91Q138.84-2.22 139.17-2.65L139.17-2.65L139.17-2.65Q139.50-3.08 139.70-3.61L139.70-3.61L141.27-3.03L141.27-3.03Q140.92-2.18 140.30-1.56L140.30-1.56L140.30-1.56Q139.68-0.95 138.90-0.54L138.90-0.54L138.90-0.54Q138.12-0.14 137.25 0.05L137.25 0.05L137.25 0.05Q136.37 0.25 135.51 0.25L135.51 0.25L135.51 0.25Q134.09 0.25 132.89-0.23L132.89-0.23L132.89-0.23Q131.69-0.71 130.82-1.57L130.82-1.57L130.82-1.57Q129.95-2.43 129.45-3.62L129.45-3.62L129.45-3.62Q128.96-4.81 128.96-6.23L128.96-6.23L128.96-6.23Q128.96-7.65 129.45-8.84L129.45-8.84L129.45-8.84Q129.95-10.03 130.82-10.89L130.82-10.89L130.82-10.89Q131.69-11.75 132.89-12.23L132.89-12.23L132.89-12.23Q134.09-12.71 135.51-12.71L135.51-12.71L135.51-12.71Q136.20-12.71 136.92-12.61L136.92-12.61L136.92-12.61Q137.64-12.51 138.32-12.31L138.32-12.31L138.32-12.31Q138.99-12.10 139.59-11.76L139.59-11.76L139.59-11.76Q140.20-11.43 140.64-10.94L140.64-10.94L140.64-10.94Q141.09-10.45 141.35-9.81L141.35-9.81L141.35-9.81Q141.61-9.16 141.61-8.34" fill="#51cacc" stroke="none" stroke-width="none" transform="translate(-345.5800356864929,7.094220907055601)" style="fill: rgb(222, 157, 214);"></path></g><g class="path" style="transform: scale(1); transform-origin: -196.09px 0.864222px; animation: 1s linear -0.525306s infinite normal forwards running beat-edd8823a-9da8-48f0-a28a-26c0fd05a4fe;"><path d="M146.87-5.89L146.87-5.89L146.87-5.89Q147.53-5.74 148.20-5.65L148.20-5.65L148.20-5.65Q148.87-5.56 149.54-5.56L149.54-5.56L149.54-5.56Q150.25-5.56 150.86-5.70L150.86-5.70L150.86-5.70Q151.46-5.83 151.91-6.15L151.91-6.15L151.91-6.15Q152.36-6.47 152.61-6.99L152.61-6.99L152.61-6.99Q152.87-7.52 152.87-8.30L152.87-8.30L152.87-8.30Q152.87-8.94 152.70-9.46L152.70-9.46L152.70-9.46Q152.53-9.99 152.19-10.37L152.19-10.37L152.19-10.37Q151.85-10.74 151.36-10.95L151.36-10.95L151.36-10.95Q150.86-11.16 150.21-11.16L150.21-11.16L150.21-11.16Q149.60-11.16 149.11-10.94L149.11-10.94L149.11-10.94Q148.62-10.71 148.25-10.33L148.25-10.33L148.25-10.33Q147.88-9.95 147.61-9.44L147.61-9.44L147.61-9.44Q147.35-8.94 147.18-8.39L147.18-8.39L147.18-8.39Q147.01-7.84 146.93-7.28L146.93-7.28L146.93-7.28Q146.86-6.72 146.86-6.23L146.86-6.23L146.86-6.23Q146.86-6.14 146.86-6.06L146.86-6.06L146.86-6.06Q146.86-5.97 146.87-5.89zM155.82-8.34L155.82-8.34L155.82-8.34Q155.82-7.57 155.57-6.98L155.57-6.98L155.57-6.98Q155.32-6.38 154.90-5.93L154.90-5.93L154.90-5.93Q154.47-5.48 153.91-5.17L153.91-5.17L153.91-5.17Q153.36-4.86 152.72-4.66L152.72-4.66L152.72-4.66Q152.09-4.46 151.42-4.37L151.42-4.37L151.42-4.37Q150.75-4.29 150.11-4.29L150.11-4.29L150.11-4.29Q149.31-4.29 148.52-4.40L148.52-4.40L148.52-4.40Q147.74-4.51 146.97-4.76L146.97-4.76L146.97-4.76Q147.09-4.05 147.35-3.41L147.35-3.41L147.35-3.41Q147.61-2.77 148.04-2.29L148.04-2.29L148.04-2.29Q148.47-1.82 149.10-1.54L149.10-1.54L149.10-1.54Q149.72-1.26 150.58-1.26L150.58-1.26L150.58-1.26Q151.15-1.26 151.67-1.43L151.67-1.43L151.67-1.43Q152.18-1.60 152.61-1.91L152.61-1.91L152.61-1.91Q153.04-2.22 153.37-2.65L153.37-2.65L153.37-2.65Q153.70-3.08 153.90-3.61L153.90-3.61L155.47-3.03L155.47-3.03Q155.12-2.18 154.50-1.56L154.50-1.56L154.50-1.56Q153.88-0.95 153.10-0.54L153.10-0.54L153.10-0.54Q152.32-0.14 151.45 0.05L151.45 0.05L151.45 0.05Q150.57 0.25 149.71 0.25L149.71 0.25L149.71 0.25Q148.30 0.25 147.09-0.23L147.09-0.23L147.09-0.23Q145.89-0.71 145.02-1.57L145.02-1.57L145.02-1.57Q144.15-2.43 143.66-3.62L143.66-3.62L143.66-3.62Q143.16-4.81 143.16-6.23L143.16-6.23L143.16-6.23Q143.16-7.65 143.66-8.84L143.66-8.84L143.66-8.84Q144.15-10.03 145.02-10.89L145.02-10.89L145.02-10.89Q145.89-11.75 147.09-12.23L147.09-12.23L147.09-12.23Q148.30-12.71 149.71-12.71L149.71-12.71L149.71-12.71Q150.40-12.71 151.12-12.61L151.12-12.61L151.12-12.61Q151.84-12.51 152.52-12.31L152.52-12.31L152.52-12.31Q153.19-12.10 153.80-11.76L153.80-11.76L153.80-11.76Q154.40-11.43 154.84-10.94L154.84-10.94L154.84-10.94Q155.29-10.45 155.55-9.81L155.55-9.81L155.55-9.81Q155.82-9.16 155.82-8.34" fill="#51cacc" stroke="none" stroke-width="none" transform="translate(-345.5800356864929,7.094220907055601)" style="fill: rgb(255, 112, 142);"></path></g><g class="path" style="transform: scale(1); transform-origin: -181.155px 2.05922px; animation: 1s linear -0.511837s infinite normal forwards running beat-edd8823a-9da8-48f0-a28a-26c0fd05a4fe;"><path d="M170.77-7.11L170.77-7.11L170.77-7.11Q170.77-5.85 170.46-4.49L170.46-4.49L170.46-4.49Q170.16-3.13 169.61-1.82L169.61-1.82L169.61-1.82Q169.06-0.50 168.30 0.65L168.30 0.65L168.30 0.65Q167.54 1.80 166.62 2.64L166.62 2.64L165.26 1.90L165.26 1.90Q165.55 1.36 165.81 0.70L165.81 0.70L165.81 0.70Q166.06 0.03 166.27-0.71L166.27-0.71L166.27-0.71Q166.48-1.46 166.65-2.26L166.65-2.26L166.65-2.26Q166.82-3.05 166.93-3.83L166.93-3.83L166.93-3.83Q167.04-4.61 167.10-5.34L167.10-5.34L167.10-5.34Q167.16-6.08 167.16-6.71L167.16-6.71L167.16-6.71Q167.16-7.13 167.13-7.61L167.13-7.61L167.13-7.61Q167.09-8.09 166.99-8.57L166.99-8.57L166.99-8.57Q166.89-9.04 166.72-9.49L166.72-9.49L166.72-9.49Q166.55-9.93 166.26-10.26L166.26-10.26L166.26-10.26Q165.98-10.59 165.57-10.80L165.57-10.80L165.57-10.80Q165.17-11 164.62-11L164.62-11L164.62-11Q164.09-11 163.67-10.76L163.67-10.76L163.67-10.76Q163.25-10.52 162.93-10.12L162.93-10.12L162.93-10.12Q162.60-9.73 162.37-9.23L162.37-9.23L162.37-9.23Q162.14-8.72 162.00-8.19L162.00-8.19L162.00-8.19Q161.85-7.66 161.79-7.14L161.79-7.14L161.79-7.14Q161.72-6.63 161.72-6.22L161.72-6.22L161.72 0L158.08 0L158.08-12.41L159.48-12.41L161.14-9.52L161.14-9.52Q161.44-10.24 161.90-10.83L161.90-10.83L161.90-10.83Q162.35-11.42 162.92-11.84L162.92-11.84L162.92-11.84Q163.49-12.26 164.18-12.48L164.18-12.48L164.18-12.48Q164.87-12.71 165.68-12.71L165.68-12.71L165.68-12.71Q166.97-12.71 167.92-12.29L167.92-12.29L167.92-12.29Q168.88-11.87 169.51-11.12L169.51-11.12L169.51-11.12Q170.15-10.38 170.46-9.35L170.46-9.35L170.46-9.35Q170.77-8.33 170.77-7.11" fill="#51cacc" stroke="none" stroke-width="none" transform="translate(-345.5800356864929,7.094220907055601)" style="fill: rgb(81, 202, 204);"></path></g><g class="path" style="transform: scale(1); transform-origin: -164.37px -1.96578px; animation: 1s linear -0.498367s infinite normal forwards running beat-edd8823a-9da8-48f0-a28a-26c0fd05a4fe;"><path d="M183.03-14.35L183.03 0L179.39 0L179.39-18.12L180.79-18.12L183.03-14.35" fill="#51cacc" stroke="none" stroke-width="none" transform="translate(-345.5800356864929,7.094220907055601)" style="fill: rgb(157, 248, 113);"></path></g><g class="path" style="transform: scale(1); transform-origin: -153.345px 0.864222px; animation: 1s linear -0.484898s infinite normal forwards running beat-edd8823a-9da8-48f0-a28a-26c0fd05a4fe;"><path d="M199.16-6.23L199.16-6.23L199.16-6.23Q199.16-5.26 198.90-4.42L198.90-4.42L198.90-4.42Q198.64-3.57 198.19-2.85L198.19-2.85L198.19-2.85Q197.73-2.13 197.09-1.55L197.09-1.55L197.09-1.55Q196.44-0.98 195.67-0.58L195.67-0.58L195.67-0.58Q194.91-0.18 194.03 0.03L194.03 0.03L194.03 0.03Q193.16 0.25 192.23 0.25L192.23 0.25L192.23 0.25Q191.31 0.25 190.44 0.03L190.44 0.03L190.44 0.03Q189.57-0.18 188.80-0.58L188.80-0.58L188.80-0.58Q188.03-0.98 187.39-1.55L187.39-1.55L187.39-1.55Q186.74-2.13 186.29-2.85L186.29-2.85L186.29-2.85Q185.83-3.57 185.57-4.42L185.57-4.42L185.57-4.42Q185.31-5.27 185.31-6.23L185.31-6.23L185.31-6.23Q185.31-7.19 185.57-8.04L185.57-8.04L185.57-8.04Q185.83-8.89 186.29-9.61L186.29-9.61L186.29-9.61Q186.74-10.33 187.39-10.91L187.39-10.91L187.39-10.91Q188.03-11.48 188.80-11.88L188.80-11.88L188.80-11.88Q189.57-12.28 190.44-12.49L190.44-12.49L190.44-12.49Q191.31-12.71 192.23-12.71L192.23-12.71L192.23-12.71Q193.16-12.71 194.03-12.49L194.03-12.49L194.03-12.49Q194.91-12.28 195.67-11.88L195.67-11.88L195.67-11.88Q196.44-11.48 197.09-10.91L197.09-10.91L197.09-10.91Q197.73-10.33 198.19-9.61L198.19-9.61L198.19-9.61Q198.64-8.89 198.90-8.04L198.90-8.04L198.90-8.04Q199.16-7.19 199.16-6.23zM195.46-6.23L195.46-6.23L195.46-6.23Q195.46-6.75 195.41-7.32L195.41-7.32L195.41-7.32Q195.35-7.90 195.21-8.45L195.21-8.45L195.21-8.45Q195.07-9.00 194.83-9.51L194.83-9.51L194.83-9.51Q194.58-10.02 194.23-10.40L194.23-10.40L194.23-10.40Q193.88-10.79 193.38-11.02L193.38-11.02L193.38-11.02Q192.89-11.25 192.23-11.25L192.23-11.25L192.23-11.25Q191.61-11.25 191.13-11.01L191.13-11.01L191.13-11.01Q190.64-10.77 190.28-10.38L190.28-10.38L190.28-10.38Q189.92-9.99 189.68-9.47L189.68-9.47L189.68-9.47Q189.44-8.96 189.29-8.41L189.29-8.41L189.29-8.41Q189.14-7.85 189.07-7.29L189.07-7.29L189.07-7.29Q189.01-6.72 189.01-6.23L189.01-6.23L189.01-6.23Q189.01-5.74 189.07-5.17L189.07-5.17L189.07-5.17Q189.14-4.61 189.29-4.05L189.29-4.05L189.29-4.05Q189.44-3.49 189.68-2.98L189.68-2.98L189.68-2.98Q189.92-2.47 190.28-2.08L190.28-2.08L190.28-2.08Q190.64-1.69 191.13-1.45L191.13-1.45L191.13-1.45Q191.61-1.21 192.23-1.21L192.23-1.21L192.23-1.21Q192.88-1.21 193.37-1.44L193.37-1.44L193.37-1.44Q193.86-1.68 194.22-2.06L194.22-2.06L194.22-2.06Q194.58-2.45 194.82-2.95L194.82-2.95L194.82-2.95Q195.06-3.46 195.20-4.02L195.20-4.02L195.20-4.02Q195.35-4.58 195.41-5.15L195.41-5.15L195.41-5.15Q195.46-5.71 195.46-6.23" fill="#51cacc" stroke="none" stroke-width="none" transform="translate(-345.5800356864929,7.094220907055601)" style="fill: rgb(224, 255, 119);"></path></g><g class="path" style="transform: scale(1); transform-origin: -138.235px 3.60422px; animation: 1s linear -0.471429s infinite normal forwards running beat-edd8823a-9da8-48f0-a28a-26c0fd05a4fe;"><path d="M213.94-12.41L213.94-1.49L213.94-1.49Q213.94-0.01 213.50 1.30L213.50 1.30L213.50 1.30Q213.06 2.61 212.22 3.59L212.22 3.59L212.22 3.59Q211.38 4.58 210.17 5.15L210.17 5.15L210.17 5.15Q208.95 5.73 207.39 5.73L207.39 5.73L207.39 5.73Q206.53 5.73 205.65 5.53L205.65 5.53L205.65 5.53Q204.78 5.34 204.00 4.94L204.00 4.94L204.00 4.94Q203.22 4.53 202.60 3.92L202.60 3.92L202.60 3.92Q201.99 3.30 201.63 2.46L201.63 2.46L203.20 1.87L203.20 1.87Q203.40 2.40 203.73 2.84L203.73 2.84L203.73 2.84Q204.06 3.28 204.49 3.59L204.49 3.59L204.49 3.59Q204.92 3.91 205.43 4.09L205.43 4.09L205.43 4.09Q205.95 4.26 206.52 4.26L206.52 4.26L206.52 4.26Q207.59 4.26 208.32 3.82L208.32 3.82L208.32 3.82Q209.04 3.38 209.48 2.67L209.48 2.67L209.48 2.67Q209.92 1.97 210.12 1.07L210.12 1.07L210.12 1.07Q210.31 0.17 210.31-0.75L210.31-0.75L210.31-1.48L210.31-1.48Q209.67-0.60 208.76-0.18L208.76-0.18L208.76-0.18Q207.85 0.25 206.77 0.25L206.77 0.25L206.77 0.25Q205.35 0.25 204.23-0.26L204.23-0.26L204.23-0.26Q203.11-0.76 202.34-1.64L202.34-1.64L202.34-1.64Q201.57-2.51 201.16-3.70L201.16-3.70L201.16-3.70Q200.75-4.88 200.75-6.23L200.75-6.23L200.75-6.23Q200.75-7.58 201.16-8.77L201.16-8.77L201.16-8.77Q201.57-9.95 202.34-10.82L202.34-10.82L202.34-10.82Q203.11-11.70 204.23-12.20L204.23-12.20L204.23-12.20Q205.35-12.71 206.77-12.71L206.77-12.71L206.77-12.71Q207.49-12.71 208.14-12.49L208.14-12.49L208.14-12.49Q208.79-12.28 209.33-11.89L209.33-11.89L209.33-11.89Q209.87-11.49 210.28-10.94L210.28-10.94L210.28-10.94Q210.70-10.39 210.93-9.71L210.93-9.71L212.54-12.41L213.94-12.41zM210.29-6.23L210.29-6.23L210.29-6.23Q210.29-6.71 210.24-7.25L210.24-7.25L210.24-7.25Q210.19-7.79 210.07-8.31L210.07-8.31L210.07-8.31Q209.96-8.84 209.75-9.32L209.75-9.32L209.75-9.32Q209.54-9.80 209.21-10.17L209.21-10.17L209.21-10.17Q208.88-10.54 208.42-10.75L208.42-10.75L208.42-10.75Q207.96-10.97 207.35-10.97L207.35-10.97L207.35-10.97Q206.73-10.97 206.28-10.75L206.28-10.75L206.28-10.75Q205.83-10.53 205.51-10.16L205.51-10.16L205.51-10.16Q205.19-9.79 204.98-9.30L204.98-9.30L204.98-9.30Q204.77-8.82 204.65-8.29L204.65-8.29L204.65-8.29Q204.53-7.77 204.48-7.23L204.48-7.23L204.48-7.23Q204.43-6.70 204.43-6.23L204.43-6.23L204.43-6.23Q204.43-5.76 204.48-5.22L204.48-5.22L204.48-5.22Q204.53-4.68 204.65-4.16L204.65-4.16L204.65-4.16Q204.77-3.63 204.98-3.15L204.98-3.15L204.98-3.15Q205.19-2.66 205.51-2.29L205.51-2.29L205.51-2.29Q205.83-1.92 206.28-1.70L206.28-1.70L206.28-1.70Q206.73-1.48 207.35-1.48L207.35-1.48L207.35-1.48Q207.90-1.48 208.34-1.71L208.34-1.71L208.34-1.71Q208.77-1.94 209.10-2.33L209.10-2.33L209.10-2.33Q209.43-2.72 209.66-3.21L209.66-3.21L209.66-3.21Q209.88-3.71 210.02-4.23L210.02-4.23L210.02-4.23Q210.16-4.76 210.22-5.28L210.22-5.28L210.22-5.28Q210.29-5.80 210.29-6.23" fill="#51cacc" stroke="none" stroke-width="none" transform="translate(-345.5800356864929,7.094220907055601)" style="fill: rgb(222, 157, 214);"></path></g><g class="path" style="transform: scale(1); transform-origin: -122.715px 3.60422px; animation: 1s linear -0.457959s infinite normal forwards running beat-edd8823a-9da8-48f0-a28a-26c0fd05a4fe;"><path d="M229.46-12.41L229.46-1.49L229.46-1.49Q229.46-0.01 229.02 1.30L229.02 1.30L229.02 1.30Q228.58 2.61 227.75 3.59L227.75 3.59L227.75 3.59Q226.91 4.58 225.69 5.15L225.69 5.15L225.69 5.15Q224.47 5.73 222.91 5.73L222.91 5.73L222.91 5.73Q222.05 5.73 221.18 5.53L221.18 5.53L221.18 5.53Q220.30 5.34 219.52 4.94L219.52 4.94L219.52 4.94Q218.74 4.53 218.13 3.92L218.13 3.92L218.13 3.92Q217.51 3.30 217.15 2.46L217.15 2.46L218.72 1.87L218.72 1.87Q218.93 2.40 219.25 2.84L219.25 2.84L219.25 2.84Q219.58 3.28 220.01 3.59L220.01 3.59L220.01 3.59Q220.44 3.91 220.96 4.09L220.96 4.09L220.96 4.09Q221.47 4.26 222.04 4.26L222.04 4.26L222.04 4.26Q223.12 4.26 223.84 3.82L223.84 3.82L223.84 3.82Q224.57 3.38 225.01 2.67L225.01 2.67L225.01 2.67Q225.45 1.97 225.64 1.07L225.64 1.07L225.64 1.07Q225.83 0.17 225.83-0.75L225.83-0.75L225.83-1.48L225.83-1.48Q225.19-0.60 224.28-0.18L224.28-0.18L224.28-0.18Q223.37 0.25 222.29 0.25L222.29 0.25L222.29 0.25Q220.87 0.25 219.75-0.26L219.75-0.26L219.75-0.26Q218.64-0.76 217.86-1.64L217.86-1.64L217.86-1.64Q217.09-2.51 216.68-3.70L216.68-3.70L216.68-3.70Q216.27-4.88 216.27-6.23L216.27-6.23L216.27-6.23Q216.27-7.58 216.68-8.77L216.68-8.77L216.68-8.77Q217.09-9.95 217.86-10.82L217.86-10.82L217.86-10.82Q218.64-11.70 219.75-12.20L219.75-12.20L219.75-12.20Q220.87-12.71 222.29-12.71L222.29-12.71L222.29-12.71Q223.01-12.71 223.66-12.49L223.66-12.49L223.66-12.49Q224.31-12.28 224.85-11.89L224.85-11.89L224.85-11.89Q225.39-11.49 225.81-10.94L225.81-10.94L225.81-10.94Q226.22-10.39 226.46-9.71L226.46-9.71L228.07-12.41L229.46-12.41zM225.81-6.23L225.81-6.23L225.81-6.23Q225.81-6.71 225.76-7.25L225.76-7.25L225.76-7.25Q225.71-7.79 225.60-8.31L225.60-8.31L225.60-8.31Q225.48-8.84 225.27-9.32L225.27-9.32L225.27-9.32Q225.06-9.80 224.73-10.17L224.73-10.17L224.73-10.17Q224.40-10.54 223.94-10.75L223.94-10.75L223.94-10.75Q223.48-10.97 222.87-10.97L222.87-10.97L222.87-10.97Q222.26-10.97 221.80-10.75L221.80-10.75L221.80-10.75Q221.35-10.53 221.03-10.16L221.03-10.16L221.03-10.16Q220.71-9.79 220.50-9.30L220.50-9.30L220.50-9.30Q220.29-8.82 220.17-8.29L220.17-8.29L220.17-8.29Q220.05-7.77 220.01-7.23L220.01-7.23L220.01-7.23Q219.96-6.70 219.96-6.23L219.96-6.23L219.96-6.23Q219.96-5.76 220.01-5.22L220.01-5.22L220.01-5.22Q220.05-4.68 220.17-4.16L220.17-4.16L220.17-4.16Q220.29-3.63 220.50-3.15L220.50-3.15L220.50-3.15Q220.71-2.66 221.03-2.29L221.03-2.29L221.03-2.29Q221.35-1.92 221.80-1.70L221.80-1.70L221.80-1.70Q222.26-1.48 222.87-1.48L222.87-1.48L222.87-1.48Q223.43-1.48 223.86-1.71L223.86-1.71L223.86-1.71Q224.30-1.94 224.62-2.33L224.62-2.33L224.62-2.33Q224.95-2.72 225.18-3.21L225.18-3.21L225.18-3.21Q225.40-3.71 225.54-4.23L225.54-4.23L225.54-4.23Q225.68-4.76 225.75-5.28L225.75-5.28L225.75-5.28Q225.81-5.80 225.81-6.23" fill="#51cacc" stroke="none" stroke-width="none" transform="translate(-345.5800356864929,7.094220907055601)" style="fill: rgb(255, 112, 142);"></path></g><g class="path" style="transform: scale(1); transform-origin: -107.48px 0.864222px; animation: 1s linear -0.44449s infinite normal forwards running beat-edd8823a-9da8-48f0-a28a-26c0fd05a4fe;"><path d="M235.48-5.89L235.48-5.89L235.48-5.89Q236.15-5.74 236.81-5.65L236.81-5.65L236.81-5.65Q237.48-5.56 238.15-5.56L238.15-5.56L238.15-5.56Q238.86-5.56 239.47-5.70L239.47-5.70L239.47-5.70Q240.08-5.83 240.52-6.15L240.52-6.15L240.52-6.15Q240.97-6.47 241.23-6.99L241.23-6.99L241.23-6.99Q241.48-7.52 241.48-8.30L241.48-8.30L241.48-8.30Q241.48-8.94 241.31-9.46L241.31-9.46L241.31-9.46Q241.14-9.99 240.80-10.37L240.80-10.37L240.80-10.37Q240.46-10.74 239.97-10.95L239.97-10.95L239.97-10.95Q239.48-11.16 238.82-11.16L238.82-11.16L238.82-11.16Q238.21-11.16 237.72-10.94L237.72-10.94L237.72-10.94Q237.23-10.71 236.86-10.33L236.86-10.33L236.86-10.33Q236.49-9.95 236.23-9.44L236.23-9.44L236.23-9.44Q235.96-8.94 235.79-8.39L235.79-8.39L235.79-8.39Q235.62-7.84 235.54-7.28L235.54-7.28L235.54-7.28Q235.47-6.72 235.47-6.23L235.47-6.23L235.47-6.23Q235.47-6.14 235.47-6.06L235.47-6.06L235.47-6.06Q235.47-5.97 235.48-5.89zM244.43-8.34L244.43-8.34L244.43-8.34Q244.43-7.57 244.18-6.98L244.18-6.98L244.18-6.98Q243.93-6.38 243.51-5.93L243.51-5.93L243.51-5.93Q243.08-5.48 242.53-5.17L242.53-5.17L242.53-5.17Q241.97-4.86 241.33-4.66L241.33-4.66L241.33-4.66Q240.70-4.46 240.03-4.37L240.03-4.37L240.03-4.37Q239.36-4.29 238.72-4.29L238.72-4.29L238.72-4.29Q237.92-4.29 237.13-4.40L237.13-4.40L237.13-4.40Q236.35-4.51 235.59-4.76L235.59-4.76L235.59-4.76Q235.71-4.05 235.96-3.41L235.96-3.41L235.96-3.41Q236.22-2.77 236.65-2.29L236.65-2.29L236.65-2.29Q237.08-1.82 237.71-1.54L237.71-1.54L237.71-1.54Q238.34-1.26 239.20-1.26L239.20-1.26L239.20-1.26Q239.77-1.26 240.28-1.43L240.28-1.43L240.28-1.43Q240.80-1.60 241.23-1.91L241.23-1.91L241.23-1.91Q241.66-2.22 241.98-2.65L241.98-2.65L241.98-2.65Q242.31-3.08 242.52-3.61L242.52-3.61L244.08-3.03L244.08-3.03Q243.73-2.18 243.11-1.56L243.11-1.56L243.11-1.56Q242.49-0.95 241.72-0.54L241.72-0.54L241.72-0.54Q240.94-0.14 240.06 0.05L240.06 0.05L240.06 0.05Q239.19 0.25 238.33 0.25L238.33 0.25L238.33 0.25Q236.91 0.25 235.71-0.23L235.71-0.23L235.71-0.23Q234.50-0.71 233.63-1.57L233.63-1.57L233.63-1.57Q232.76-2.43 232.27-3.62L232.27-3.62L232.27-3.62Q231.77-4.81 231.77-6.23L231.77-6.23L231.77-6.23Q231.77-7.65 232.27-8.84L232.27-8.84L232.27-8.84Q232.76-10.03 233.63-10.89L233.63-10.89L233.63-10.89Q234.50-11.75 235.71-12.23L235.71-12.23L235.71-12.23Q236.91-12.71 238.33-12.71L238.33-12.71L238.33-12.71Q239.01-12.71 239.73-12.61L239.73-12.61L239.73-12.61Q240.45-12.51 241.13-12.31L241.13-12.31L241.13-12.31Q241.81-12.10 242.41-11.76L242.41-11.76L242.41-11.76Q243.01-11.43 243.46-10.94L243.46-10.94L243.46-10.94Q243.90-10.45 244.16-9.81L244.16-9.81L244.16-9.81Q244.43-9.16 244.43-8.34" fill="#51cacc" stroke="none" stroke-width="none" transform="translate(-345.5800356864929,7.094220907055601)" style="fill: rgb(81, 202, 204);"></path></g><g class="path" style="transform: scale(1); transform-origin: -92.975px -1.24578px; animation: 1s linear -0.43102s infinite normal forwards running beat-edd8823a-9da8-48f0-a28a-26c0fd05a4fe;"><path d="M259.20-16.97L259.20 0L257.80 0L256.19-2.70L256.19-2.70Q255.95-2.02 255.54-1.47L255.54-1.47L255.54-1.47Q255.13-0.92 254.58-0.53L254.58-0.53L254.58-0.53Q254.04-0.14 253.39 0.08L253.39 0.08L253.39 0.08Q252.74 0.29 252.02 0.29L252.02 0.29L252.02 0.29Q250.60 0.29 249.49-0.21L249.49-0.21L249.49-0.21Q248.37-0.72 247.60-1.60L247.60-1.60L247.60-1.60Q246.82-2.47 246.42-3.65L246.42-3.65L246.42-3.65Q246.01-4.83 246.01-6.19L246.01-6.19L246.01-6.19Q246.01-7.54 246.42-8.72L246.42-8.72L246.42-8.72Q246.82-9.90 247.60-10.77L247.60-10.77L247.60-10.77Q248.37-11.64 249.49-12.15L249.49-12.15L249.49-12.15Q250.60-12.65 252.02-12.65L252.02-12.65L252.02-12.65Q253.11-12.65 254.02-12.24L254.02-12.24L254.02-12.24Q254.92-11.82 255.57-10.92L255.57-10.92L255.57-16.97L259.20-16.97zM255.55-6.19L255.55-6.19L255.55-6.19Q255.55-6.62 255.48-7.13L255.48-7.13L255.48-7.13Q255.42-7.65 255.28-8.17L255.28-8.17L255.28-8.17Q255.14-8.70 254.91-9.20L254.91-9.20L254.91-9.20Q254.69-9.69 254.36-10.08L254.36-10.08L254.36-10.08Q254.03-10.46 253.60-10.69L253.60-10.69L253.60-10.69Q253.16-10.92 252.60-10.92L252.60-10.92L252.60-10.92Q251.99-10.92 251.54-10.70L251.54-10.70L251.54-10.70Q251.09-10.48 250.77-10.11L250.77-10.11L250.77-10.11Q250.44-9.74 250.23-9.26L250.23-9.26L250.23-9.26Q250.02-8.78 249.91-8.25L249.91-8.25L249.91-8.25Q249.79-7.72 249.74-7.19L249.74-7.19L249.74-7.19Q249.69-6.66 249.69-6.19L249.69-6.19L249.69-6.19Q249.69-5.71 249.74-5.18L249.74-5.18L249.74-5.18Q249.79-4.65 249.91-4.13L249.91-4.13L249.91-4.13Q250.02-3.60 250.23-3.11L250.23-3.11L250.23-3.11Q250.44-2.62 250.77-2.25L250.77-2.25L250.77-2.25Q251.09-1.88 251.54-1.66L251.54-1.66L251.54-1.66Q251.99-1.44 252.60-1.44L252.60-1.44L252.60-1.44Q253.21-1.44 253.68-1.65L253.68-1.65L253.68-1.65Q254.14-1.87 254.47-2.24L254.47-2.24L254.47-2.24Q254.79-2.61 255.00-3.09L255.00-3.09L255.00-3.09Q255.21-3.57 255.33-4.10L255.33-4.10L255.33-4.10Q255.45-4.63 255.50-5.17L255.50-5.17L255.50-5.17Q255.55-5.70 255.55-6.19" fill="#51cacc" stroke="none" stroke-width="none" transform="translate(-345.5800356864929,7.094220907055601)" style="fill: rgb(157, 248, 113);"></path></g><g class="path" style="transform: scale(1); transform-origin: -70.94px 0.864222px; animation: 1s linear -0.417551s infinite normal forwards running beat-edd8823a-9da8-48f0-a28a-26c0fd05a4fe;"><path d="M281.56-6.23L281.56-6.23L281.56-6.23Q281.56-5.26 281.31-4.42L281.31-4.42L281.31-4.42Q281.05-3.57 280.59-2.85L280.59-2.85L280.59-2.85Q280.13-2.13 279.49-1.55L279.49-1.55L279.49-1.55Q278.85-0.98 278.08-0.58L278.08-0.58L278.08-0.58Q277.31-0.18 276.43 0.03L276.43 0.03L276.43 0.03Q275.56 0.25 274.63 0.25L274.63 0.25L274.63 0.25Q273.71 0.25 272.84 0.03L272.84 0.03L272.84 0.03Q271.97-0.18 271.20-0.58L271.20-0.58L271.20-0.58Q270.43-0.98 269.79-1.55L269.79-1.55L269.79-1.55Q269.15-2.13 268.69-2.85L268.69-2.85L268.69-2.85Q268.23-3.57 267.97-4.42L267.97-4.42L267.97-4.42Q267.72-5.27 267.72-6.23L267.72-6.23L267.72-6.23Q267.72-7.19 267.97-8.04L267.97-8.04L267.97-8.04Q268.23-8.89 268.69-9.61L268.69-9.61L268.69-9.61Q269.15-10.33 269.79-10.91L269.79-10.91L269.79-10.91Q270.43-11.48 271.20-11.88L271.20-11.88L271.20-11.88Q271.97-12.28 272.84-12.49L272.84-12.49L272.84-12.49Q273.71-12.71 274.63-12.71L274.63-12.71L274.63-12.71Q275.56-12.71 276.43-12.49L276.43-12.49L276.43-12.49Q277.31-12.28 278.08-11.88L278.08-11.88L278.08-11.88Q278.85-11.48 279.49-10.91L279.49-10.91L279.49-10.91Q280.13-10.33 280.59-9.61L280.59-9.61L280.59-9.61Q281.05-8.89 281.31-8.04L281.31-8.04L281.31-8.04Q281.56-7.19 281.56-6.23zM277.87-6.23L277.87-6.23L277.87-6.23Q277.87-6.75 277.81-7.32L277.81-7.32L277.81-7.32Q277.75-7.90 277.61-8.45L277.61-8.45L277.61-8.45Q277.47-9.00 277.23-9.51L277.23-9.51L277.23-9.51Q276.99-10.02 276.63-10.40L276.63-10.40L276.63-10.40Q276.28-10.79 275.78-11.02L275.78-11.02L275.78-11.02Q275.29-11.25 274.63-11.25L274.63-11.25L274.63-11.25Q274.01-11.25 273.53-11.01L273.53-11.01L273.53-11.01Q273.04-10.77 272.69-10.38L272.69-10.38L272.69-10.38Q272.33-9.99 272.08-9.47L272.08-9.47L272.08-9.47Q271.84-8.96 271.69-8.41L271.69-8.41L271.69-8.41Q271.54-7.85 271.48-7.29L271.48-7.29L271.48-7.29Q271.41-6.72 271.41-6.23L271.41-6.23L271.41-6.23Q271.41-5.74 271.48-5.17L271.48-5.17L271.48-5.17Q271.54-4.61 271.69-4.05L271.69-4.05L271.69-4.05Q271.84-3.49 272.08-2.98L272.08-2.98L272.08-2.98Q272.33-2.47 272.69-2.08L272.69-2.08L272.69-2.08Q273.04-1.69 273.53-1.45L273.53-1.45L273.53-1.45Q274.01-1.21 274.63-1.21L274.63-1.21L274.63-1.21Q275.28-1.21 275.77-1.44L275.77-1.44L275.77-1.44Q276.27-1.68 276.63-2.06L276.63-2.06L276.63-2.06Q276.99-2.45 277.22-2.95L277.22-2.95L277.22-2.95Q277.46-3.46 277.60-4.02L277.60-4.02L277.60-4.02Q277.75-4.58 277.81-5.15L277.81-5.15L277.81-5.15Q277.87-5.71 277.87-6.23" fill="#51cacc" stroke="none" stroke-width="none" transform="translate(-345.5800356864929,7.094220907055601)" style="fill: rgb(224, 255, 119);"></path></g><g class="path" style="transform: scale(1); transform-origin: -56.0201px 1.03422px; animation: 1s linear -0.404082s infinite normal forwards running beat-edd8823a-9da8-48f0-a28a-26c0fd05a4fe;"><path d="M283.22-5.31L283.22-5.31L283.22-5.31Q283.22-6.16 283.36-7.07L283.36-7.07L283.36-7.07Q283.51-7.98 283.78-8.89L283.78-8.89L283.78-8.89Q284.06-9.81 284.44-10.70L284.44-10.70L284.44-10.70Q284.83-11.59 285.31-12.41L285.31-12.41L287.97-12.41L287.97-12.41Q287.70-11.60 287.49-10.73L287.49-10.73L287.49-10.73Q287.28-9.85 287.13-8.98L287.13-8.98L287.13-8.98Q286.99-8.10 286.91-7.26L286.91-7.26L286.91-7.26Q286.83-6.42 286.83-5.70L286.83-5.70L286.83-5.70Q286.83-5.29 286.86-4.81L286.86-4.81L286.86-4.81Q286.90-4.33 287.00-3.85L287.00-3.85L287.00-3.85Q287.10-3.37 287.27-2.93L287.27-2.93L287.27-2.93Q287.45-2.49 287.73-2.15L287.73-2.15L287.73-2.15Q288.01-1.82 288.41-1.62L288.41-1.62L288.41-1.62Q288.81-1.42 289.36-1.42L289.36-1.42L289.36-1.42Q289.90-1.42 290.32-1.66L290.32-1.66L290.32-1.66Q290.75-1.90 291.07-2.29L291.07-2.29L291.07-2.29Q291.39-2.69 291.62-3.19L291.62-3.19L291.62-3.19Q291.84-3.70 291.99-4.23L291.99-4.23L291.99-4.23Q292.13-4.76 292.20-5.27L292.20-5.27L292.20-5.27Q292.27-5.78 292.27-6.19L292.27-6.19L292.27-12.41L295.90-12.41L295.90 0L294.51 0L292.84-2.89L292.84-2.89Q292.53-2.17 292.09-1.58L292.09-1.58L292.09-1.58Q291.64-1.00 291.07-0.58L291.07-0.58L291.07-0.58Q290.50-0.16 289.81 0.06L289.81 0.06L289.81 0.06Q289.12 0.29 288.31 0.29L288.31 0.29L288.31 0.29Q287.02 0.29 286.06-0.13L286.06-0.13L286.06-0.13Q285.11-0.55 284.47-1.29L284.47-1.29L284.47-1.29Q283.84-2.03 283.53-3.06L283.53-3.06L283.53-3.06Q283.22-4.08 283.22-5.31" fill="#51cacc" stroke="none" stroke-width="none" transform="translate(-345.5800356864929,7.094220907055601)" style="fill: rgb(222, 157, 214);"></path></g><g class="path" style="transform: scale(1); transform-origin: -43.0401px -1.39078px; animation: 1s linear -0.390612s infinite normal forwards running beat-edd8823a-9da8-48f0-a28a-26c0fd05a4fe;"><path d="M303.61-10.97L303.61 0L299.96 0L299.96-10.97L297.71-10.97L297.71-12.41L299.96-12.41L299.96-16.97L303.61-16.97L303.61-12.41L307.37-12.41L307.37-10.97L303.61-10.97" fill="#51cacc" stroke="none" stroke-width="none" transform="translate(-345.5800356864929,7.094220907055601)" style="fill: rgb(255, 112, 142);"></path></g><g class="path" style="transform: scale(1); transform-origin: -23.705px 3.60422px; animation: 1s linear -0.377143s infinite normal forwards running beat-edd8823a-9da8-48f0-a28a-26c0fd05a4fe;"><path d="M328.47-6.23L328.47-6.23L328.47-6.23Q328.47-4.88 328.07-3.70L328.07-3.70L328.07-3.70Q327.66-2.51 326.88-1.64L326.88-1.64L326.88-1.64Q326.11-0.76 324.99-0.26L324.99-0.26L324.99-0.26Q323.88 0.25 322.46 0.25L322.46 0.25L322.46 0.25Q321.37 0.25 320.47-0.18L320.47-0.18L320.47-0.18Q319.56-0.60 318.91-1.48L318.91-1.48L318.91 5.73L315.28 5.73L315.28-12.41L316.68-12.41L318.29-9.71L318.29-9.71Q318.53-10.39 318.94-10.94L318.94-10.94L318.94-10.94Q319.35-11.49 319.90-11.89L319.90-11.89L319.90-11.89Q320.44-12.28 321.09-12.49L321.09-12.49L321.09-12.49Q321.74-12.71 322.46-12.71L322.46-12.71L322.46-12.71Q323.88-12.71 324.99-12.20L324.99-12.20L324.99-12.20Q326.11-11.70 326.88-10.82L326.88-10.82L326.88-10.82Q327.66-9.95 328.07-8.77L328.07-8.77L328.07-8.77Q328.47-7.58 328.47-6.23zM324.79-6.23L324.79-6.23L324.79-6.23Q324.79-6.70 324.74-7.23L324.74-7.23L324.74-7.23Q324.69-7.77 324.58-8.29L324.58-8.29L324.58-8.29Q324.46-8.82 324.25-9.30L324.25-9.30L324.25-9.30Q324.04-9.79 323.72-10.16L323.72-10.16L323.72-10.16Q323.39-10.53 322.94-10.75L322.94-10.75L322.94-10.75Q322.48-10.97 321.88-10.97L321.88-10.97L321.88-10.97Q321.26-10.97 320.80-10.75L320.80-10.75L320.80-10.75Q320.34-10.54 320.02-10.17L320.02-10.17L320.02-10.17Q319.69-9.80 319.48-9.32L319.48-9.32L319.48-9.32Q319.27-8.84 319.15-8.31L319.15-8.31L319.15-8.31Q319.03-7.79 318.98-7.25L318.98-7.25L318.98-7.25Q318.94-6.71 318.94-6.23L318.94-6.23L318.94-6.23Q318.94-5.80 319-5.28L319-5.28L319-5.28Q319.06-4.76 319.20-4.23L319.20-4.23L319.20-4.23Q319.34-3.71 319.57-3.21L319.57-3.21L319.57-3.21Q319.79-2.72 320.12-2.33L320.12-2.33L320.12-2.33Q320.45-1.94 320.89-1.71L320.89-1.71L320.89-1.71Q321.32-1.48 321.88-1.48L321.88-1.48L321.88-1.48Q322.49-1.48 322.94-1.70L322.94-1.70L322.94-1.70Q323.39-1.92 323.72-2.29L323.72-2.29L323.72-2.29Q324.04-2.66 324.25-3.15L324.25-3.15L324.25-3.15Q324.46-3.63 324.58-4.16L324.58-4.16L324.58-4.16Q324.69-4.68 324.74-5.22L324.74-5.22L324.74-5.22Q324.79-5.76 324.79-6.23" fill="#51cacc" stroke="none" stroke-width="none" transform="translate(-345.5800356864929,7.094220907055601)" style="fill: rgb(81, 202, 204);"></path></g><g class="path" style="transform: scale(1); transform-origin: -12.955px -1.96578px; animation: 1s linear -0.363673s infinite normal forwards running beat-edd8823a-9da8-48f0-a28a-26c0fd05a4fe;"><path d="M334.44-14.35L334.44 0L330.81 0L330.81-18.12L332.20-18.12L334.44-14.35" fill="#51cacc" stroke="none" stroke-width="none" transform="translate(-345.5800356864929,7.094220907055601)" style="fill: rgb(157, 248, 113);"></path></g><g class="path" style="transform: scale(1); transform-origin: -2.50505px 0.864222px; animation: 1s linear -0.350204s infinite normal forwards running beat-edd8823a-9da8-48f0-a28a-26c0fd05a4fe;"><path d="M340.45-5.89L340.45-5.89L340.45-5.89Q341.12-5.74 341.78-5.65L341.78-5.65L341.78-5.65Q342.45-5.56 343.13-5.56L343.13-5.56L343.13-5.56Q343.84-5.56 344.44-5.70L344.44-5.70L344.44-5.70Q345.05-5.83 345.50-6.15L345.50-6.15L345.50-6.15Q345.94-6.47 346.20-6.99L346.20-6.99L346.20-6.99Q346.46-7.52 346.46-8.30L346.46-8.30L346.46-8.30Q346.46-8.94 346.29-9.46L346.29-9.46L346.29-9.46Q346.11-9.99 345.77-10.37L345.77-10.37L345.77-10.37Q345.44-10.74 344.94-10.95L344.94-10.95L344.94-10.95Q344.45-11.16 343.79-11.16L343.79-11.16L343.79-11.16Q343.18-11.16 342.69-10.94L342.69-10.94L342.69-10.94Q342.20-10.71 341.83-10.33L341.83-10.33L341.83-10.33Q341.46-9.95 341.20-9.44L341.20-9.44L341.20-9.44Q340.94-8.94 340.76-8.39L340.76-8.39L340.76-8.39Q340.59-7.84 340.52-7.28L340.52-7.28L340.52-7.28Q340.44-6.72 340.44-6.23L340.44-6.23L340.44-6.23Q340.44-6.14 340.44-6.06L340.44-6.06L340.44-6.06Q340.44-5.97 340.45-5.89zM349.40-8.34L349.40-8.34L349.40-8.34Q349.40-7.57 349.15-6.98L349.15-6.98L349.15-6.98Q348.91-6.38 348.48-5.93L348.48-5.93L348.48-5.93Q348.06-5.48 347.50-5.17L347.50-5.17L347.50-5.17Q346.94-4.86 346.31-4.66L346.31-4.66L346.31-4.66Q345.67-4.46 345.00-4.37L345.00-4.37L345.00-4.37Q344.33-4.29 343.70-4.29L343.70-4.29L343.70-4.29Q342.89-4.29 342.11-4.40L342.11-4.40L342.11-4.40Q341.32-4.51 340.56-4.76L340.56-4.76L340.56-4.76Q340.68-4.05 340.94-3.41L340.94-3.41L340.94-3.41Q341.19-2.77 341.62-2.29L341.62-2.29L341.62-2.29Q342.05-1.82 342.68-1.54L342.68-1.54L342.68-1.54Q343.31-1.26 344.17-1.26L344.17-1.26L344.17-1.26Q344.74-1.26 345.25-1.43L345.25-1.43L345.25-1.43Q345.77-1.60 346.20-1.91L346.20-1.91L346.20-1.91Q346.63-2.22 346.96-2.65L346.96-2.65L346.96-2.65Q347.28-3.08 347.49-3.61L347.49-3.61L349.06-3.03L349.06-3.03Q348.70-2.18 348.08-1.56L348.08-1.56L348.08-1.56Q347.47-0.95 346.69-0.54L346.69-0.54L346.69-0.54Q345.91-0.14 345.03 0.05L345.03 0.05L345.03 0.05Q344.16 0.25 343.30 0.25L343.30 0.25L343.30 0.25Q341.88 0.25 340.68-0.23L340.68-0.23L340.68-0.23Q339.47-0.71 338.60-1.57L338.60-1.57L338.60-1.57Q337.73-2.43 337.24-3.62L337.24-3.62L337.24-3.62Q336.75-4.81 336.75-6.23L336.75-6.23L336.75-6.23Q336.75-7.65 337.24-8.84L337.24-8.84L337.24-8.84Q337.73-10.03 338.60-10.89L338.60-10.89L338.60-10.89Q339.47-11.75 340.68-12.23L340.68-12.23L340.68-12.23Q341.88-12.71 343.30-12.71L343.30-12.71L343.30-12.71Q343.99-12.71 344.71-12.61L344.71-12.61L344.71-12.61Q345.43-12.51 346.10-12.31L346.10-12.31L346.10-12.31Q346.78-12.10 347.38-11.76L347.38-11.76L347.38-11.76Q347.98-11.43 348.43-10.94L348.43-10.94L348.43-10.94Q348.87-10.45 349.14-9.81L349.14-9.81L349.14-9.81Q349.40-9.16 349.40-8.34" fill="#51cacc" stroke="none" stroke-width="none" transform="translate(-345.5800356864929,7.094220907055601)" style="fill: rgb(224, 255, 119);"></path></g><g class="path" style="transform: scale(1); transform-origin: 11.985px 0.864222px; animation: 1s linear -0.336735s infinite normal forwards running beat-edd8823a-9da8-48f0-a28a-26c0fd05a4fe;"><path d="M364.16-12.41L364.16 0L360.53 0L360.53-1.48L360.53-1.48Q359.88-0.60 358.98-0.18L358.98-0.18L358.98-0.18Q358.07 0.25 356.98 0.25L356.98 0.25L356.98 0.25Q355.57 0.25 354.45-0.26L354.45-0.26L354.45-0.26Q353.33-0.76 352.56-1.64L352.56-1.64L352.56-1.64Q351.79-2.51 351.38-3.70L351.38-3.70L351.38-3.70Q350.97-4.88 350.97-6.23L350.97-6.23L350.97-6.23Q350.97-7.58 351.38-8.77L351.38-8.77L351.38-8.77Q351.79-9.95 352.56-10.82L352.56-10.82L352.56-10.82Q353.33-11.70 354.45-12.20L354.45-12.20L354.45-12.20Q355.57-12.71 356.98-12.71L356.98-12.71L356.98-12.71Q357.70-12.71 358.35-12.49L358.35-12.49L358.35-12.49Q359.00-12.28 359.55-11.89L359.55-11.89L359.55-11.89Q360.09-11.49 360.50-10.94L360.50-10.94L360.50-10.94Q360.92-10.39 361.15-9.71L361.15-9.71L362.76-12.41L364.16-12.41zM360.51-6.23L360.51-6.23L360.51-6.23Q360.51-6.71 360.46-7.25L360.46-7.25L360.46-7.25Q360.41-7.79 360.29-8.31L360.29-8.31L360.29-8.31Q360.17-8.84 359.97-9.32L359.97-9.32L359.97-9.32Q359.76-9.80 359.43-10.17L359.43-10.17L359.43-10.17Q359.10-10.54 358.64-10.75L358.64-10.75L358.64-10.75Q358.18-10.97 357.56-10.97L357.56-10.97L357.56-10.97Q356.95-10.97 356.50-10.75L356.50-10.75L356.50-10.75Q356.05-10.53 355.73-10.16L355.73-10.16L355.73-10.16Q355.41-9.79 355.20-9.30L355.20-9.30L355.20-9.30Q354.99-8.82 354.87-8.29L354.87-8.29L354.87-8.29Q354.75-7.77 354.70-7.23L354.70-7.23L354.70-7.23Q354.65-6.70 354.65-6.23L354.65-6.23L354.65-6.23Q354.65-5.76 354.70-5.22L354.70-5.22L354.70-5.22Q354.75-4.68 354.87-4.16L354.87-4.16L354.87-4.16Q354.99-3.63 355.20-3.15L355.20-3.15L355.20-3.15Q355.41-2.66 355.73-2.29L355.73-2.29L355.73-2.29Q356.05-1.92 356.50-1.70L356.50-1.70L356.50-1.70Q356.95-1.48 357.56-1.48L357.56-1.48L357.56-1.48Q358.12-1.48 358.56-1.71L358.56-1.71L358.56-1.71Q358.99-1.94 359.32-2.33L359.32-2.33L359.32-2.33Q359.65-2.72 359.87-3.21L359.87-3.21L359.87-3.21Q360.10-3.71 360.24-4.23L360.24-4.23L360.24-4.23Q360.38-4.76 360.44-5.28L360.44-5.28L360.44-5.28Q360.51-5.80 360.51-6.23" fill="#51cacc" stroke="none" stroke-width="none" transform="translate(-345.5800356864929,7.094220907055601)" style="fill: rgb(222, 157, 214);"></path></g><g class="path" style="transform: scale(1); transform-origin: 26.56px 0.864222px; animation: 1s linear -0.323265s infinite normal forwards running beat-edd8823a-9da8-48f0-a28a-26c0fd05a4fe;"><path d="M377.87-3.96L377.87-3.96L377.87-3.96Q377.87-3.15 377.63-2.51L377.63-2.51L377.63-2.51Q377.39-1.88 376.99-1.41L376.99-1.41L376.99-1.41Q376.58-0.95 376.02-0.63L376.02-0.63L376.02-0.63Q375.46-0.31 374.82-0.12L374.82-0.12L374.82-0.12Q374.18 0.08 373.48 0.16L373.48 0.16L373.48 0.16Q372.79 0.25 372.10 0.25L372.10 0.25L372.10 0.25Q371.17 0.25 370.47 0.13L370.47 0.13L370.47 0.13Q369.76 0.01 369.11-0.25L369.11-0.25L369.11-0.25Q368.47-0.52 367.83-0.93L367.83-0.93L367.83-0.93Q367.19-1.35 366.41-1.96L366.41-1.96L368.52-3.68L368.52-3.68Q368.81-3.14 369.29-2.69L369.29-2.69L369.29-2.69Q369.77-2.25 370.28-1.92L370.28-1.92L370.28-1.92Q370.80-1.60 371.28-1.43L371.28-1.43L371.28-1.43Q371.77-1.26 372.07-1.26L372.07-1.26L372.07-1.26Q372.31-1.26 372.63-1.27L372.63-1.27L372.63-1.27Q372.94-1.29 373.26-1.34L373.26-1.34L373.26-1.34Q373.58-1.39 373.89-1.48L373.89-1.48L373.89-1.48Q374.20-1.58 374.45-1.75L374.45-1.75L374.45-1.75Q374.69-1.91 374.83-2.16L374.83-2.16L374.83-2.16Q374.98-2.42 374.98-2.77L374.98-2.77L374.98-2.77Q374.98-3.14 374.79-3.41L374.79-3.41L374.79-3.41Q374.60-3.68 374.30-3.89L374.30-3.89L374.30-3.89Q374-4.09 373.61-4.23L373.61-4.23L373.61-4.23Q373.23-4.37 372.83-4.48L372.83-4.48L372.83-4.48Q372.44-4.59 372.08-4.67L372.08-4.67L372.08-4.67Q371.71-4.75 371.44-4.82L371.44-4.82L371.44-4.82Q370.95-4.96 370.40-5.11L370.40-5.11L370.40-5.11Q369.85-5.25 369.32-5.44L369.32-5.44L369.32-5.44Q368.78-5.63 368.29-5.89L368.29-5.89L368.29-5.89Q367.80-6.14 367.43-6.50L367.43-6.50L367.43-6.50Q367.06-6.86 366.84-7.35L366.84-7.35L366.84-7.35Q366.62-7.84 366.62-8.50L366.62-8.50L366.62-8.50Q366.62-9.70 367.10-10.51L367.10-10.51L367.10-10.51Q367.58-11.32 368.36-11.81L368.36-11.81L368.36-11.81Q369.14-12.30 370.14-12.50L370.14-12.50L370.14-12.50Q371.14-12.71 372.17-12.71L372.17-12.71L372.17-12.71Q372.88-12.71 373.67-12.56L373.67-12.56L373.67-12.56Q374.45-12.42 375.19-12.13L375.19-12.13L375.19-12.13Q375.93-11.85 376.58-11.44L376.58-11.44L376.58-11.44Q377.22-11.03 377.65-10.51L377.65-10.51L375.54-8.77L375.54-8.77Q375.30-9.41 374.92-9.87L374.92-9.87L374.92-9.87Q374.54-10.33 374.09-10.63L374.09-10.63L374.09-10.63Q373.65-10.92 373.18-11.06L373.18-11.06L373.18-11.06Q372.71-11.20 372.31-11.20L372.31-11.20L372.31-11.20Q371.93-11.20 371.44-11.17L371.44-11.17L371.44-11.17Q370.96-11.14 370.54-10.99L370.54-10.99L370.54-10.99Q370.11-10.84 369.82-10.53L369.82-10.53L369.82-10.53Q369.52-10.23 369.52-9.69L369.52-9.69L369.52-9.69Q369.52-9.30 369.70-9.03L369.70-9.03L369.70-9.03Q369.88-8.75 370.17-8.56L370.17-8.56L370.17-8.56Q370.46-8.36 370.83-8.22L370.83-8.22L370.83-8.22Q371.20-8.09 371.58-7.99L371.58-7.99L371.58-7.99Q371.97-7.88 372.33-7.81L372.33-7.81L372.33-7.81Q372.70-7.73 372.99-7.65L372.99-7.65L372.99-7.65Q373.48-7.51 374.04-7.36L374.04-7.36L374.04-7.36Q374.59-7.22 375.13-7.03L375.13-7.03L375.13-7.03Q375.67-6.84 376.16-6.59L376.16-6.59L376.16-6.59Q376.66-6.34 377.04-5.97L377.04-5.97L377.04-5.97Q377.42-5.61 377.64-5.12L377.64-5.12L377.64-5.12Q377.87-4.63 377.87-3.96" fill="#51cacc" stroke="none" stroke-width="none" transform="translate(-345.5800356864929,7.094220907055601)" style="fill: rgb(255, 112, 142);"></path></g><g class="path" style="transform: scale(1); transform-origin: 40.185px 0.864222px; animation: 1s linear -0.309796s infinite normal forwards running beat-edd8823a-9da8-48f0-a28a-26c0fd05a4fe;"><path d="M383.14-5.89L383.14-5.89L383.14-5.89Q383.81-5.74 384.47-5.65L384.47-5.65L384.47-5.65Q385.14-5.56 385.82-5.56L385.82-5.56L385.82-5.56Q386.53-5.56 387.13-5.70L387.13-5.70L387.13-5.70Q387.74-5.83 388.19-6.15L388.19-6.15L388.19-6.15Q388.63-6.47 388.89-6.99L388.89-6.99L388.89-6.99Q389.15-7.52 389.15-8.30L389.15-8.30L389.15-8.30Q389.15-8.94 388.97-9.46L388.97-9.46L388.97-9.46Q388.80-9.99 388.46-10.37L388.46-10.37L388.46-10.37Q388.13-10.74 387.63-10.95L387.63-10.95L387.63-10.95Q387.14-11.16 386.48-11.16L386.48-11.16L386.48-11.16Q385.87-11.16 385.38-10.94L385.38-10.94L385.38-10.94Q384.89-10.71 384.52-10.33L384.52-10.33L384.52-10.33Q384.15-9.95 383.89-9.44L383.89-9.44L383.89-9.44Q383.63-8.94 383.45-8.39L383.45-8.39L383.45-8.39Q383.28-7.84 383.21-7.28L383.21-7.28L383.21-7.28Q383.13-6.72 383.13-6.23L383.13-6.23L383.13-6.23Q383.13-6.14 383.13-6.06L383.13-6.06L383.13-6.06Q383.13-5.97 383.14-5.89zM392.09-8.34L392.09-8.34L392.09-8.34Q392.09-7.57 391.84-6.98L391.84-6.98L391.84-6.98Q391.60-6.38 391.17-5.93L391.17-5.93L391.17-5.93Q390.75-5.48 390.19-5.17L390.19-5.17L390.19-5.17Q389.63-4.86 389.00-4.66L389.00-4.66L389.00-4.66Q388.36-4.46 387.69-4.37L387.69-4.37L387.69-4.37Q387.02-4.29 386.39-4.29L386.39-4.29L386.39-4.29Q385.58-4.29 384.80-4.40L384.80-4.40L384.80-4.40Q384.01-4.51 383.25-4.76L383.25-4.76L383.25-4.76Q383.37-4.05 383.63-3.41L383.63-3.41L383.63-3.41Q383.88-2.77 384.31-2.29L384.31-2.29L384.31-2.29Q384.74-1.82 385.37-1.54L385.37-1.54L385.37-1.54Q386.00-1.26 386.86-1.26L386.86-1.26L386.86-1.26Q387.43-1.26 387.94-1.43L387.94-1.43L387.94-1.43Q388.46-1.60 388.89-1.91L388.89-1.91L388.89-1.91Q389.32-2.22 389.65-2.65L389.65-2.65L389.65-2.65Q389.97-3.08 390.18-3.61L390.18-3.61L391.75-3.03L391.75-3.03Q391.39-2.18 390.77-1.56L390.77-1.56L390.77-1.56Q390.16-0.95 389.38-0.54L389.38-0.54L389.38-0.54Q388.60-0.14 387.72 0.05L387.72 0.05L387.72 0.05Q386.85 0.25 385.99 0.25L385.99 0.25L385.99 0.25Q384.57 0.25 383.37-0.23L383.37-0.23L383.37-0.23Q382.16-0.71 381.29-1.57L381.29-1.57L381.29-1.57Q380.42-2.43 379.93-3.62L379.93-3.62L379.93-3.62Q379.44-4.81 379.44-6.23L379.44-6.23L379.44-6.23Q379.44-7.65 379.93-8.84L379.93-8.84L379.93-8.84Q380.42-10.03 381.29-10.89L381.29-10.89L381.29-10.89Q382.16-11.75 383.37-12.23L383.37-12.23L383.37-12.23Q384.57-12.71 385.99-12.71L385.99-12.71L385.99-12.71Q386.68-12.71 387.40-12.61L387.40-12.61L387.40-12.61Q388.12-12.51 388.79-12.31L388.79-12.31L388.79-12.31Q389.47-12.10 390.07-11.76L390.07-11.76L390.07-11.76Q390.67-11.43 391.12-10.94L391.12-10.94L391.12-10.94Q391.56-10.45 391.83-9.81L391.83-9.81L391.83-9.81Q392.09-9.16 392.09-8.34" fill="#51cacc" stroke="none" stroke-width="none" transform="translate(-345.5800356864929,7.094220907055601)" style="fill: rgb(81, 202, 204);"></path></g><g class="path" style="transform: scale(1); transform-origin: 60.375px 0.864222px; animation: 1s linear -0.296327s infinite normal forwards running beat-edd8823a-9da8-48f0-a28a-26c0fd05a4fe;"><path d="M412.04-9.33L412.04-9.33L410.47-8.71L410.47-8.71Q410.09-9.89 409.21-10.53L409.21-10.53L409.21-10.53Q408.33-11.16 407.10-11.16L407.10-11.16L407.10-11.16Q406.43-11.16 405.91-10.95L405.91-10.95L405.91-10.95Q405.39-10.74 405.00-10.38L405.00-10.38L405.00-10.38Q404.60-10.01 404.33-9.53L404.33-9.53L404.33-9.53Q404.06-9.04 403.88-8.50L403.88-8.50L403.88-8.50Q403.71-7.95 403.64-7.36L403.64-7.36L403.64-7.36Q403.56-6.78 403.56-6.23L403.56-6.23L403.56-6.23Q403.56-5.64 403.63-5.04L403.63-5.04L403.63-5.04Q403.69-4.44 403.85-3.88L403.85-3.88L403.85-3.88Q404.00-3.33 404.26-2.85L404.26-2.85L404.26-2.85Q404.52-2.37 404.91-2.02L404.91-2.02L404.91-2.02Q405.30-1.67 405.85-1.46L405.85-1.46L405.85-1.46Q406.39-1.26 407.10-1.26L407.10-1.26L407.10-1.26Q407.67-1.26 408.18-1.43L408.18-1.43L408.18-1.43Q408.70-1.60 409.13-1.91L409.13-1.91L409.13-1.91Q409.56-2.22 409.89-2.65L409.89-2.65L409.89-2.65Q410.22-3.08 410.42-3.61L410.42-3.61L412.00-3.03L412.00-3.03Q411.64-2.18 411.06-1.56L411.06-1.56L411.06-1.56Q410.47-0.95 409.73-0.54L409.73-0.54L409.73-0.54Q408.99-0.14 408.14 0.05L408.14 0.05L408.14 0.05Q407.29 0.25 406.42 0.25L406.42 0.25L406.42 0.25Q405.01 0.25 403.81-0.23L403.81-0.23L403.81-0.23Q402.61-0.71 401.73-1.57L401.73-1.57L401.73-1.57Q400.86-2.44 400.36-3.63L400.36-3.63L400.36-3.63Q399.87-4.81 399.87-6.23L399.87-6.23L399.87-6.23Q399.87-7.66 400.36-8.85L400.36-8.85L400.36-8.85Q400.84-10.04 401.71-10.90L401.71-10.90L401.71-10.90Q402.58-11.76 403.79-12.24L403.79-12.24L403.79-12.24Q404.99-12.71 406.42-12.71L406.42-12.71L406.42-12.71Q407.32-12.71 408.18-12.51L408.18-12.51L408.18-12.51Q409.04-12.31 409.78-11.90L409.78-11.90L409.78-11.90Q410.51-11.48 411.10-10.85L411.10-10.85L411.10-10.85Q411.68-10.22 412.04-9.33" fill="#51cacc" stroke="none" stroke-width="none" transform="translate(-345.5800356864929,7.094220907055601)" style="fill: rgb(157, 248, 113);"></path></g><g class="path" style="transform: scale(1); transform-origin: 70.425px -1.96578px; animation: 1s linear -0.282857s infinite normal forwards running beat-edd8823a-9da8-48f0-a28a-26c0fd05a4fe;"><path d="M417.82-14.35L417.82 0L414.19 0L414.19-18.12L415.58-18.12L417.82-14.35" fill="#51cacc" stroke="none" stroke-width="none" transform="translate(-345.5800356864929,7.094220907055601)" style="fill: rgb(224, 255, 119);"></path></g><g class="path" style="transform: scale(1); transform-origin: 77.1px -8.30578px; animation: 1s linear -0.269388s infinite normal forwards running beat-edd8823a-9da8-48f0-a28a-26c0fd05a4fe;"><path d="M424.66-15.40L424.66-15.40L424.66-15.40Q424.66-15.00 424.50-14.63L424.50-14.63L424.50-14.63Q424.35-14.27 424.08-14.00L424.08-14.00L424.08-14.00Q423.81-13.73 423.45-13.57L423.45-13.57L423.45-13.57Q423.08-13.42 422.67-13.42L422.67-13.42L422.67-13.42Q422.26-13.42 421.90-13.57L421.90-13.57L421.90-13.57Q421.54-13.73 421.28-14.00L421.28-14.00L421.28-14.00Q421.01-14.27 420.85-14.63L420.85-14.63L420.85-14.63Q420.70-15.00 420.70-15.40L420.70-15.40L420.70-15.40Q420.70-15.81 420.85-16.17L420.85-16.17L420.85-16.17Q421.01-16.53 421.28-16.80L421.28-16.80L421.28-16.80Q421.54-17.07 421.90-17.23L421.90-17.23L421.90-17.23Q422.26-17.38 422.67-17.38L422.67-17.38L422.67-17.38Q423.08-17.38 423.45-17.23L423.45-17.23L423.45-17.23Q423.81-17.07 424.08-16.80L424.08-16.80L424.08-16.80Q424.35-16.53 424.50-16.17L424.50-16.17L424.50-16.17Q424.66-15.81 424.66-15.40" fill="#51cacc" stroke="none" stroke-width="none" transform="translate(-345.5800356864929,7.094220907055601)" style="fill: rgb(222, 157, 214);"></path></g><g class="path" style="transform: scale(1); transform-origin: 77.0999px 0.894222px; animation: 1s linear -0.255918s infinite normal forwards running beat-edd8823a-9da8-48f0-a28a-26c0fd05a4fe;"><path d="M424.50-12.40L424.50 0L420.86 0L420.86-12.40L424.50-12.40" fill="#51cacc" stroke="none" stroke-width="none" transform="translate(-345.5800356864929,7.094220907055601)" style="fill: rgb(255, 112, 142);"></path></g><g class="path" style="transform: scale(1); transform-origin: 87.325px 0.864222px; animation: 1s linear -0.242449s infinite normal forwards running beat-edd8823a-9da8-48f0-a28a-26c0fd05a4fe;"><path d="M438.99-9.33L438.99-9.33L437.42-8.71L437.42-8.71Q437.05-9.89 436.17-10.53L436.17-10.53L436.17-10.53Q435.28-11.16 434.05-11.16L434.05-11.16L434.05-11.16Q433.38-11.16 432.86-10.95L432.86-10.95L432.86-10.95Q432.34-10.74 431.95-10.38L431.95-10.38L431.95-10.38Q431.56-10.01 431.28-9.53L431.28-9.53L431.28-9.53Q431.01-9.04 430.84-8.50L430.84-8.50L430.84-8.50Q430.67-7.95 430.59-7.36L430.59-7.36L430.59-7.36Q430.51-6.78 430.51-6.23L430.51-6.23L430.51-6.23Q430.51-5.64 430.58-5.04L430.58-5.04L430.58-5.04Q430.64-4.44 430.80-3.88L430.80-3.88L430.80-3.88Q430.96-3.33 431.21-2.85L431.21-2.85L431.21-2.85Q431.47-2.37 431.86-2.02L431.86-2.02L431.86-2.02Q432.25-1.67 432.80-1.46L432.80-1.46L432.80-1.46Q433.34-1.26 434.05-1.26L434.05-1.26L434.05-1.26Q434.62-1.26 435.13-1.43L435.13-1.43L435.13-1.43Q435.65-1.60 436.08-1.91L436.08-1.91L436.08-1.91Q436.51-2.22 436.84-2.65L436.84-2.65L436.84-2.65Q437.17-3.08 437.37-3.61L437.37-3.61L438.95-3.03L438.95-3.03Q438.59-2.18 438.01-1.56L438.01-1.56L438.01-1.56Q437.42-0.95 436.68-0.54L436.68-0.54L436.68-0.54Q435.94-0.14 435.09 0.05L435.09 0.05L435.09 0.05Q434.24 0.25 433.37 0.25L433.37 0.25L433.37 0.25Q431.96 0.25 430.76-0.23L430.76-0.23L430.76-0.23Q429.56-0.71 428.68-1.57L428.68-1.57L428.68-1.57Q427.81-2.44 427.31-3.63L427.31-3.63L427.31-3.63Q426.82-4.81 426.82-6.23L426.82-6.23L426.82-6.23Q426.82-7.66 427.31-8.85L427.31-8.85L427.31-8.85Q427.80-10.04 428.67-10.90L428.67-10.90L428.67-10.90Q429.54-11.76 430.74-12.24L430.74-12.24L430.74-12.24Q431.94-12.71 433.37-12.71L433.37-12.71L433.37-12.71Q434.27-12.71 435.13-12.51L435.13-12.51L435.13-12.51Q435.99-12.31 436.73-11.90L436.73-11.90L436.73-11.90Q437.46-11.48 438.05-10.85L438.05-10.85L438.05-10.85Q438.64-10.22 438.99-9.33" fill="#51cacc" stroke="none" stroke-width="none" transform="translate(-345.5800356864929,7.094220907055601)" style="fill: rgb(81, 202, 204);"></path></g><g class="path" style="transform: scale(1); transform-origin: 101.65px -1.39078px; animation: 1s linear -0.22898s infinite normal forwards running beat-edd8823a-9da8-48f0-a28a-26c0fd05a4fe;"><path d="M444.77-4.17L444.77 0L441.14 0L441.14-16.97L444.77-16.97L444.77-5.83L444.77-5.83Q445.66-6.48 446.53-7.25L446.53-7.25L446.53-7.25Q447.39-8.02 448.17-8.88L448.17-8.88L448.17-8.88Q448.96-9.73 449.63-10.62L449.63-10.62L449.63-10.62Q450.30-11.52 450.81-12.41L450.81-12.41L453.28-12.41L453.28-12.41Q452.53-11.14 451.49-9.88L451.49-9.88L451.49-9.88Q450.46-8.62 449.25-7.47L449.25-7.47L453.32 0L449.31 0L446.42-5.18L446.42-5.18Q445.62-4.63 444.77-4.17L444.77-4.17" fill="#51cacc" stroke="none" stroke-width="none" transform="translate(-345.5800356864929,7.094220907055601)" style="fill: rgb(157, 248, 113);"></path></g><g class="path" style="transform: scale(1); transform-origin: 122.035px 0.864222px; animation: 1s linear -0.21551s infinite normal forwards running beat-edd8823a-9da8-48f0-a28a-26c0fd05a4fe;"><path d="M474.54-6.23L474.54-6.23L474.54-6.23Q474.54-5.26 474.28-4.42L474.28-4.42L474.28-4.42Q474.02-3.57 473.56-2.85L473.56-2.85L473.56-2.85Q473.11-2.13 472.46-1.55L472.46-1.55L472.46-1.55Q471.82-0.98 471.05-0.58L471.05-0.58L471.05-0.58Q470.28-0.18 469.41 0.03L469.41 0.03L469.41 0.03Q468.53 0.25 467.61 0.25L467.61 0.25L467.61 0.25Q466.68 0.25 465.81 0.03L465.81 0.03L465.81 0.03Q464.94-0.18 464.18-0.58L464.18-0.58L464.18-0.58Q463.41-0.98 462.76-1.55L462.76-1.55L462.76-1.55Q462.12-2.13 461.66-2.85L461.66-2.85L461.66-2.85Q461.21-3.57 460.95-4.42L460.95-4.42L460.95-4.42Q460.69-5.27 460.69-6.23L460.69-6.23L460.69-6.23Q460.69-7.19 460.95-8.04L460.95-8.04L460.95-8.04Q461.21-8.89 461.66-9.61L461.66-9.61L461.66-9.61Q462.12-10.33 462.76-10.91L462.76-10.91L462.76-10.91Q463.41-11.48 464.18-11.88L464.18-11.88L464.18-11.88Q464.94-12.28 465.81-12.49L465.81-12.49L465.81-12.49Q466.68-12.71 467.61-12.71L467.61-12.71L467.61-12.71Q468.53-12.71 469.41-12.49L469.41-12.49L469.41-12.49Q470.28-12.28 471.05-11.88L471.05-11.88L471.05-11.88Q471.82-11.48 472.46-10.91L472.46-10.91L472.46-10.91Q473.11-10.33 473.56-9.61L473.56-9.61L473.56-9.61Q474.02-8.89 474.28-8.04L474.28-8.04L474.28-8.04Q474.54-7.19 474.54-6.23zM470.84-6.23L470.84-6.23L470.84-6.23Q470.84-6.75 470.78-7.32L470.78-7.32L470.78-7.32Q470.72-7.90 470.58-8.45L470.58-8.45L470.58-8.45Q470.44-9.00 470.20-9.51L470.20-9.51L470.20-9.51Q469.96-10.02 469.61-10.40L469.61-10.40L469.61-10.40Q469.25-10.79 468.76-11.02L468.76-11.02L468.76-11.02Q468.26-11.25 467.61-11.25L467.61-11.25L467.61-11.25Q466.98-11.25 466.50-11.01L466.50-11.01L466.50-11.01Q466.02-10.77 465.66-10.38L465.66-10.38L465.66-10.38Q465.30-9.99 465.06-9.47L465.06-9.47L465.06-9.47Q464.81-8.96 464.66-8.41L464.66-8.41L464.66-8.41Q464.51-7.85 464.45-7.29L464.45-7.29L464.45-7.29Q464.38-6.72 464.38-6.23L464.38-6.23L464.38-6.23Q464.38-5.74 464.45-5.17L464.45-5.17L464.45-5.17Q464.51-4.61 464.66-4.05L464.66-4.05L464.66-4.05Q464.81-3.49 465.06-2.98L465.06-2.98L465.06-2.98Q465.30-2.47 465.66-2.08L465.66-2.08L465.66-2.08Q466.02-1.69 466.50-1.45L466.50-1.45L466.50-1.45Q466.98-1.21 467.61-1.21L467.61-1.21L467.61-1.21Q468.25-1.21 468.75-1.44L468.75-1.44L468.75-1.44Q469.24-1.68 469.60-2.06L469.60-2.06L469.60-2.06Q469.96-2.45 470.20-2.95L470.20-2.95L470.20-2.95Q470.43-3.46 470.58-4.02L470.58-4.02L470.58-4.02Q470.72-4.58 470.78-5.15L470.78-5.15L470.78-5.15Q470.84-5.71 470.84-6.23" fill="#51cacc" stroke="none" stroke-width="none" transform="translate(-345.5800356864929,7.094220907055601)" style="fill: rgb(224, 255, 119);"></path></g><g class="path" style="transform: scale(1); transform-origin: 137.585px 2.05922px; animation: 1s linear -0.202041s infinite normal forwards running beat-edd8823a-9da8-48f0-a28a-26c0fd05a4fe;"><path d="M489.51-7.11L489.51-7.11L489.51-7.11Q489.51-5.85 489.20-4.49L489.20-4.49L489.20-4.49Q488.90-3.13 488.35-1.82L488.35-1.82L488.35-1.82Q487.80-0.50 487.04 0.65L487.04 0.65L487.04 0.65Q486.28 1.80 485.36 2.64L485.36 2.64L484 1.90L484 1.90Q484.29 1.36 484.55 0.70L484.55 0.70L484.55 0.70Q484.81 0.03 485.02-0.71L485.02-0.71L485.02-0.71Q485.22-1.46 485.39-2.26L485.39-2.26L485.39-2.26Q485.56-3.05 485.67-3.83L485.67-3.83L485.67-3.83Q485.78-4.61 485.84-5.34L485.84-5.34L485.84-5.34Q485.90-6.08 485.90-6.71L485.90-6.71L485.90-6.71Q485.90-7.13 485.87-7.61L485.87-7.61L485.87-7.61Q485.84-8.09 485.73-8.57L485.73-8.57L485.73-8.57Q485.63-9.04 485.46-9.49L485.46-9.49L485.46-9.49Q485.29-9.93 485.00-10.26L485.00-10.26L485.00-10.26Q484.72-10.59 484.32-10.80L484.32-10.80L484.32-10.80Q483.91-11 483.37-11L483.37-11L483.37-11Q482.83-11 482.41-10.76L482.41-10.76L482.41-10.76Q481.99-10.52 481.67-10.12L481.67-10.12L481.67-10.12Q481.35-9.73 481.12-9.23L481.12-9.23L481.12-9.23Q480.88-8.72 480.74-8.19L480.74-8.19L480.74-8.19Q480.59-7.66 480.53-7.14L480.53-7.14L480.53-7.14Q480.47-6.63 480.47-6.22L480.47-6.22L480.47 0L476.82 0L476.82-12.41L478.22-12.41L479.89-9.52L479.89-9.52Q480.19-10.24 480.64-10.83L480.64-10.83L480.64-10.83Q481.09-11.42 481.66-11.84L481.66-11.84L481.66-11.84Q482.23-12.26 482.92-12.48L482.92-12.48L482.92-12.48Q483.61-12.71 484.42-12.71L484.42-12.71L484.42-12.71Q485.71-12.71 486.66-12.29L486.66-12.29L486.66-12.29Q487.62-11.87 488.25-11.12L488.25-11.12L488.25-11.12Q488.89-10.38 489.20-9.35L489.20-9.35L489.20-9.35Q489.51-8.33 489.51-7.11" fill="#51cacc" stroke="none" stroke-width="none" transform="translate(-345.5800356864929,7.094220907055601)" style="fill: rgb(222, 157, 214);"></path></g><g class="path" style="transform: scale(1); transform-origin: 156.16px -1.39078px; animation: 1s linear -0.188571s infinite normal forwards running beat-edd8823a-9da8-48f0-a28a-26c0fd05a4fe;"><path d="M502.81-10.97L502.81 0L499.17 0L499.17-10.97L496.91-10.97L496.91-12.41L499.17-12.41L499.17-16.97L502.81-16.97L502.81-12.41L506.57-12.41L506.57-10.97L502.81-10.97" fill="#51cacc" stroke="none" stroke-width="none" transform="translate(-345.5800356864929,7.094220907055601)" style="fill: rgb(255, 112, 142);"></path></g><g class="path" style="transform: scale(1); transform-origin: 169.02px -0.0707788px; animation: 1s linear -0.175102s infinite normal forwards running beat-edd8823a-9da8-48f0-a28a-26c0fd05a4fe;"><path d="M520.94-7.11L520.94-7.11L520.94-7.11Q520.94-5.85 520.64-4.49L520.64-4.49L520.64-4.49Q520.33-3.13 519.78-1.82L519.78-1.82L519.78-1.82Q519.23-0.50 518.47 0.65L518.47 0.65L518.47 0.65Q517.71 1.80 516.80 2.64L516.80 2.64L515.43 1.90L515.43 1.90Q515.72 1.36 515.98 0.70L515.98 0.70L515.98 0.70Q516.24 0.03 516.45-0.71L516.45-0.71L516.45-0.71Q516.66-1.46 516.82-2.26L516.82-2.26L516.82-2.26Q516.99-3.05 517.10-3.83L517.10-3.83L517.10-3.83Q517.21-4.61 517.27-5.34L517.27-5.34L517.27-5.34Q517.33-6.08 517.33-6.71L517.33-6.71L517.33-6.71Q517.33-7.13 517.30-7.61L517.30-7.61L517.30-7.61Q517.27-8.09 517.17-8.57L517.17-8.57L517.17-8.57Q517.06-9.04 516.89-9.49L516.89-9.49L516.89-9.49Q516.72-9.93 516.44-10.26L516.44-10.26L516.44-10.26Q516.15-10.59 515.75-10.80L515.75-10.80L515.75-10.80Q515.35-11 514.80-11L514.80-11L514.80-11Q514.26-11 513.84-10.76L513.84-10.76L513.84-10.76Q513.42-10.52 513.10-10.12L513.10-10.12L513.10-10.12Q512.78-9.73 512.55-9.23L512.55-9.23L512.55-9.23Q512.32-8.72 512.17-8.19L512.17-8.19L512.17-8.19Q512.03-7.66 511.96-7.14L511.96-7.14L511.96-7.14Q511.90-6.63 511.90-6.22L511.90-6.22L511.90 0L508.26 0L508.26-16.97L511.89-16.97L511.89-10.58L511.89-10.58Q512.58-11.60 513.60-12.15L513.60-12.15L513.60-12.15Q514.62-12.71 515.85-12.71L515.85-12.71L515.85-12.71Q517.14-12.71 518.10-12.29L518.10-12.29L518.10-12.29Q519.05-11.87 519.69-11.12L519.69-11.12L519.69-11.12Q520.32-10.38 520.63-9.35L520.63-9.35L520.63-9.35Q520.94-8.33 520.94-7.11" fill="#51cacc" stroke="none" stroke-width="none" transform="translate(-345.5800356864929,7.094220907055601)" style="fill: rgb(81, 202, 204);"></path></g><g class="path" style="transform: scale(1); transform-origin: 183.365px 0.864222px; animation: 1s linear -0.161633s infinite normal forwards running beat-edd8823a-9da8-48f0-a28a-26c0fd05a4fe;"><path d="M526.32-5.89L526.32-5.89L526.32-5.89Q526.99-5.74 527.66-5.65L527.66-5.65L527.66-5.65Q528.32-5.56 529.00-5.56L529.00-5.56L529.00-5.56Q529.71-5.56 530.31-5.70L530.31-5.70L530.31-5.70Q530.92-5.83 531.37-6.15L531.37-6.15L531.37-6.15Q531.81-6.47 532.07-6.99L532.07-6.99L532.07-6.99Q532.33-7.52 532.33-8.30L532.33-8.30L532.33-8.30Q532.33-8.94 532.16-9.46L532.16-9.46L532.16-9.46Q531.99-9.99 531.65-10.37L531.65-10.37L531.65-10.37Q531.31-10.74 530.81-10.95L530.81-10.95L530.81-10.95Q530.32-11.16 529.67-11.16L529.67-11.16L529.67-11.16Q529.05-11.16 528.56-10.94L528.56-10.94L528.56-10.94Q528.08-10.71 527.70-10.33L527.70-10.33L527.70-10.33Q527.33-9.95 527.07-9.44L527.07-9.44L527.07-9.44Q526.81-8.94 526.64-8.39L526.64-8.39L526.64-8.39Q526.46-7.84 526.39-7.28L526.39-7.28L526.39-7.28Q526.31-6.72 526.31-6.23L526.31-6.23L526.31-6.23Q526.31-6.14 526.31-6.06L526.31-6.06L526.31-6.06Q526.31-5.97 526.32-5.89zM535.27-8.34L535.27-8.34L535.27-8.34Q535.27-7.57 535.03-6.98L535.03-6.98L535.03-6.98Q534.78-6.38 534.35-5.93L534.35-5.93L534.35-5.93Q533.93-5.48 533.37-5.17L533.37-5.17L533.37-5.17Q532.81-4.86 532.18-4.66L532.18-4.66L532.18-4.66Q531.54-4.46 530.87-4.37L530.87-4.37L530.87-4.37Q530.20-4.29 529.57-4.29L529.57-4.29L529.57-4.29Q528.76-4.29 527.98-4.40L527.98-4.40L527.98-4.40Q527.19-4.51 526.43-4.76L526.43-4.76L526.43-4.76Q526.55-4.05 526.81-3.41L526.81-3.41L526.81-3.41Q527.07-2.77 527.50-2.29L527.50-2.29L527.50-2.29Q527.92-1.82 528.55-1.54L528.55-1.54L528.55-1.54Q529.18-1.26 530.04-1.26L530.04-1.26L530.04-1.26Q530.61-1.26 531.13-1.43L531.13-1.43L531.13-1.43Q531.64-1.60 532.07-1.91L532.07-1.91L532.07-1.91Q532.50-2.22 532.83-2.65L532.83-2.65L532.83-2.65Q533.16-3.08 533.36-3.61L533.36-3.61L534.93-3.03L534.93-3.03Q534.57-2.18 533.96-1.56L533.96-1.56L533.96-1.56Q533.34-0.95 532.56-0.54L532.56-0.54L532.56-0.54Q531.78-0.14 530.91 0.05L530.91 0.05L530.91 0.05Q530.03 0.25 529.17 0.25L529.17 0.25L529.17 0.25Q527.75 0.25 526.55-0.23L526.55-0.23L526.55-0.23Q525.35-0.71 524.48-1.57L524.48-1.57L524.48-1.57Q523.61-2.43 523.11-3.62L523.11-3.62L523.11-3.62Q522.62-4.81 522.62-6.23L522.62-6.23L522.62-6.23Q522.62-7.65 523.11-8.84L523.11-8.84L523.11-8.84Q523.61-10.03 524.48-10.89L524.48-10.89L524.48-10.89Q525.35-11.75 526.55-12.23L526.55-12.23L526.55-12.23Q527.75-12.71 529.17-12.71L529.17-12.71L529.17-12.71Q529.86-12.71 530.58-12.61L530.58-12.61L530.58-12.61Q531.30-12.51 531.97-12.31L531.97-12.31L531.97-12.31Q532.65-12.10 533.25-11.76L533.25-11.76L533.25-11.76Q533.85-11.43 534.30-10.94L534.30-10.94L534.30-10.94Q534.75-10.45 535.01-9.81L535.01-9.81L535.01-9.81Q535.27-9.16 535.27-8.34" fill="#51cacc" stroke="none" stroke-width="none" transform="translate(-345.5800356864929,7.094220907055601)" style="fill: rgb(157, 248, 113);"></path></g><g class="path" style="transform: scale(1); transform-origin: 200.005px -1.96578px; animation: 1s linear -0.148163s infinite normal forwards running beat-edd8823a-9da8-48f0-a28a-26c0fd05a4fe;"><path d="M547.40-14.35L547.40 0L543.77 0L543.77-18.12L545.17-18.12L547.40-14.35" fill="#51cacc" stroke="none" stroke-width="none" transform="translate(-345.5800356864929,7.094220907055601)" style="fill: rgb(224, 255, 119);"></path></g><g class="path" style="transform: scale(1); transform-origin: 211.035px 0.864222px; animation: 1s linear -0.134694s infinite normal forwards running beat-edd8823a-9da8-48f0-a28a-26c0fd05a4fe;"><path d="M563.54-6.23L563.54-6.23L563.54-6.23Q563.54-5.26 563.28-4.42L563.28-4.42L563.28-4.42Q563.02-3.57 562.56-2.85L562.56-2.85L562.56-2.85Q562.11-2.13 561.46-1.55L561.46-1.55L561.46-1.55Q560.82-0.98 560.05-0.58L560.05-0.58L560.05-0.58Q559.28-0.18 558.41 0.03L558.41 0.03L558.41 0.03Q557.53 0.25 556.61 0.25L556.61 0.25L556.61 0.25Q555.68 0.25 554.81 0.03L554.81 0.03L554.81 0.03Q553.94-0.18 553.17-0.58L553.17-0.58L553.17-0.58Q552.41-0.98 551.76-1.55L551.76-1.55L551.76-1.55Q551.12-2.13 550.66-2.85L550.66-2.85L550.66-2.85Q550.20-3.57 549.95-4.42L549.95-4.42L549.95-4.42Q549.69-5.27 549.69-6.23L549.69-6.23L549.69-6.23Q549.69-7.19 549.95-8.04L549.95-8.04L549.95-8.04Q550.20-8.89 550.66-9.61L550.66-9.61L550.66-9.61Q551.12-10.33 551.76-10.91L551.76-10.91L551.76-10.91Q552.41-11.48 553.17-11.88L553.17-11.88L553.17-11.88Q553.94-12.28 554.81-12.49L554.81-12.49L554.81-12.49Q555.68-12.71 556.61-12.71L556.61-12.71L556.61-12.71Q557.53-12.71 558.41-12.49L558.41-12.49L558.41-12.49Q559.28-12.28 560.05-11.88L560.05-11.88L560.05-11.88Q560.82-11.48 561.46-10.91L561.46-10.91L561.46-10.91Q562.11-10.33 562.56-9.61L562.56-9.61L562.56-9.61Q563.02-8.89 563.28-8.04L563.28-8.04L563.28-8.04Q563.54-7.19 563.54-6.23zM559.84-6.23L559.84-6.23L559.84-6.23Q559.84-6.75 559.78-7.32L559.78-7.32L559.78-7.32Q559.72-7.90 559.58-8.45L559.58-8.45L559.58-8.45Q559.44-9.00 559.20-9.51L559.20-9.51L559.20-9.51Q558.96-10.02 558.60-10.40L558.60-10.40L558.60-10.40Q558.25-10.79 557.76-11.02L557.76-11.02L557.76-11.02Q557.26-11.25 556.61-11.25L556.61-11.25L556.61-11.25Q555.98-11.25 555.50-11.01L555.50-11.01L555.50-11.01Q555.02-10.77 554.66-10.38L554.66-10.38L554.66-10.38Q554.30-9.99 554.06-9.47L554.06-9.47L554.06-9.47Q553.81-8.96 553.66-8.41L553.66-8.41L553.66-8.41Q553.51-7.85 553.45-7.29L553.45-7.29L553.45-7.29Q553.38-6.72 553.38-6.23L553.38-6.23L553.38-6.23Q553.38-5.74 553.45-5.17L553.45-5.17L553.45-5.17Q553.51-4.61 553.66-4.05L553.66-4.05L553.66-4.05Q553.81-3.49 554.06-2.98L554.06-2.98L554.06-2.98Q554.30-2.47 554.66-2.08L554.66-2.08L554.66-2.08Q555.02-1.69 555.50-1.45L555.50-1.45L555.50-1.45Q555.98-1.21 556.61-1.21L556.61-1.21L556.61-1.21Q557.25-1.21 557.75-1.44L557.75-1.44L557.75-1.44Q558.24-1.68 558.60-2.06L558.60-2.06L558.60-2.06Q558.96-2.45 559.20-2.95L559.20-2.95L559.20-2.95Q559.43-3.46 559.58-4.02L559.58-4.02L559.58-4.02Q559.72-4.58 559.78-5.15L559.78-5.15L559.78-5.15Q559.84-5.71 559.84-6.23" fill="#51cacc" stroke="none" stroke-width="none" transform="translate(-345.5800356864929,7.094220907055601)" style="fill: rgb(222, 157, 214);"></path></g><g class="path" style="transform: scale(1); transform-origin: 226.145px 3.60422px; animation: 1s linear -0.121224s infinite normal forwards running beat-edd8823a-9da8-48f0-a28a-26c0fd05a4fe;"><path d="M578.32-12.41L578.32-1.49L578.32-1.49Q578.32-0.01 577.88 1.30L577.88 1.30L577.88 1.30Q577.44 2.61 576.60 3.59L576.60 3.59L576.60 3.59Q575.76 4.58 574.54 5.15L574.54 5.15L574.54 5.15Q573.32 5.73 571.76 5.73L571.76 5.73L571.76 5.73Q570.90 5.73 570.03 5.53L570.03 5.53L570.03 5.53Q569.15 5.34 568.37 4.94L568.37 4.94L568.37 4.94Q567.60 4.53 566.98 3.92L566.98 3.92L566.98 3.92Q566.36 3.30 566.01 2.46L566.01 2.46L567.57 1.87L567.57 1.87Q567.78 2.40 568.11 2.84L568.11 2.84L568.11 2.84Q568.43 3.28 568.86 3.59L568.86 3.59L568.86 3.59Q569.29 3.91 569.81 4.09L569.81 4.09L569.81 4.09Q570.32 4.26 570.89 4.26L570.89 4.26L570.89 4.26Q571.97 4.26 572.69 3.82L572.69 3.82L572.69 3.82Q573.42 3.38 573.86 2.67L573.86 2.67L573.86 2.67Q574.30 1.97 574.49 1.07L574.49 1.07L574.49 1.07Q574.69 0.17 574.69-0.75L574.69-0.75L574.69-1.48L574.69-1.48Q574.04-0.60 573.13-0.18L573.13-0.18L573.13-0.18Q572.23 0.25 571.14 0.25L571.14 0.25L571.14 0.25Q569.72 0.25 568.61-0.26L568.61-0.26L568.61-0.26Q567.49-0.76 566.71-1.64L566.71-1.64L566.71-1.64Q565.94-2.51 565.53-3.70L565.53-3.70L565.53-3.70Q565.13-4.88 565.13-6.23L565.13-6.23L565.13-6.23Q565.13-7.58 565.53-8.77L565.53-8.77L565.53-8.77Q565.94-9.95 566.71-10.82L566.71-10.82L566.71-10.82Q567.49-11.70 568.61-12.20L568.61-12.20L568.61-12.20Q569.72-12.71 571.14-12.71L571.14-12.71L571.14-12.71Q571.86-12.71 572.51-12.49L572.51-12.49L572.51-12.49Q573.16-12.28 573.70-11.89L573.70-11.89L573.70-11.89Q574.25-11.49 574.66-10.94L574.66-10.94L574.66-10.94Q575.07-10.39 575.31-9.71L575.31-9.71L576.92-12.41L578.32-12.41zM574.66-6.23L574.66-6.23L574.66-6.23Q574.66-6.71 574.62-7.25L574.62-7.25L574.62-7.25Q574.57-7.79 574.45-8.31L574.45-8.31L574.45-8.31Q574.33-8.84 574.12-9.32L574.12-9.32L574.12-9.32Q573.91-9.80 573.58-10.17L573.58-10.17L573.58-10.17Q573.26-10.54 572.79-10.75L572.79-10.75L572.79-10.75Q572.33-10.97 571.72-10.97L571.72-10.97L571.72-10.97Q571.11-10.97 570.66-10.75L570.66-10.75L570.66-10.75Q570.21-10.53 569.88-10.16L569.88-10.16L569.88-10.16Q569.56-9.79 569.35-9.30L569.35-9.30L569.35-9.30Q569.14-8.82 569.02-8.29L569.02-8.29L569.02-8.29Q568.91-7.77 568.86-7.23L568.86-7.23L568.86-7.23Q568.81-6.70 568.81-6.23L568.81-6.23L568.81-6.23Q568.81-5.76 568.86-5.22L568.86-5.22L568.86-5.22Q568.91-4.68 569.02-4.16L569.02-4.16L569.02-4.16Q569.14-3.63 569.35-3.15L569.35-3.15L569.35-3.15Q569.56-2.66 569.88-2.29L569.88-2.29L569.88-2.29Q570.21-1.92 570.66-1.70L570.66-1.70L570.66-1.70Q571.11-1.48 571.72-1.48L571.72-1.48L571.72-1.48Q572.28-1.48 572.71-1.71L572.71-1.71L572.71-1.71Q573.15-1.94 573.48-2.33L573.48-2.33L573.48-2.33Q573.80-2.72 574.03-3.21L574.03-3.21L574.03-3.21Q574.26-3.71 574.40-4.23L574.40-4.23L574.40-4.23Q574.54-4.76 574.60-5.28L574.60-5.28L574.60-5.28Q574.66-5.80 574.66-6.23" fill="#51cacc" stroke="none" stroke-width="none" transform="translate(-345.5800356864929,7.094220907055601)" style="fill: rgb(255, 112, 142);"></path></g><g class="path" style="transform: scale(1); transform-origin: 241.945px 0.864222px; animation: 1s linear -0.107755s infinite normal forwards running beat-edd8823a-9da8-48f0-a28a-26c0fd05a4fe;"><path d="M594.45-6.23L594.45-6.23L594.45-6.23Q594.45-5.26 594.19-4.42L594.19-4.42L594.19-4.42Q593.94-3.57 593.48-2.85L593.48-2.85L593.48-2.85Q593.02-2.13 592.38-1.55L592.38-1.55L592.38-1.55Q591.73-0.98 590.97-0.58L590.97-0.58L590.97-0.58Q590.20-0.18 589.32 0.03L589.32 0.03L589.32 0.03Q588.45 0.25 587.52 0.25L587.52 0.25L587.52 0.25Q586.60 0.25 585.73 0.03L585.73 0.03L585.73 0.03Q584.86-0.18 584.09-0.58L584.09-0.58L584.09-0.58Q583.32-0.98 582.68-1.55L582.68-1.55L582.68-1.55Q582.03-2.13 581.58-2.85L581.58-2.85L581.58-2.85Q581.12-3.57 580.86-4.42L580.86-4.42L580.86-4.42Q580.60-5.27 580.60-6.23L580.60-6.23L580.60-6.23Q580.60-7.19 580.86-8.04L580.86-8.04L580.86-8.04Q581.12-8.89 581.58-9.61L581.58-9.61L581.58-9.61Q582.03-10.33 582.68-10.91L582.68-10.91L582.68-10.91Q583.32-11.48 584.09-11.88L584.09-11.88L584.09-11.88Q584.86-12.28 585.73-12.49L585.73-12.49L585.73-12.49Q586.60-12.71 587.52-12.71L587.52-12.71L587.52-12.71Q588.45-12.71 589.32-12.49L589.32-12.49L589.32-12.49Q590.20-12.28 590.97-11.88L590.97-11.88L590.97-11.88Q591.73-11.48 592.38-10.91L592.38-10.91L592.38-10.91Q593.02-10.33 593.48-9.61L593.48-9.61L593.48-9.61Q593.94-8.89 594.19-8.04L594.19-8.04L594.19-8.04Q594.45-7.19 594.45-6.23zM590.76-6.23L590.76-6.23L590.76-6.23Q590.76-6.75 590.70-7.32L590.70-7.32L590.70-7.32Q590.64-7.90 590.50-8.45L590.50-8.45L590.50-8.45Q590.36-9.00 590.12-9.51L590.12-9.51L590.12-9.51Q589.88-10.02 589.52-10.40L589.52-10.40L589.52-10.40Q589.17-10.79 588.67-11.02L588.67-11.02L588.67-11.02Q588.18-11.25 587.52-11.25L587.52-11.25L587.52-11.25Q586.90-11.25 586.42-11.01L586.42-11.01L586.42-11.01Q585.93-10.77 585.57-10.38L585.57-10.38L585.57-10.38Q585.21-9.99 584.97-9.47L584.97-9.47L584.97-9.47Q584.73-8.96 584.58-8.41L584.58-8.41L584.58-8.41Q584.43-7.85 584.36-7.29L584.36-7.29L584.36-7.29Q584.30-6.72 584.30-6.23L584.30-6.23L584.30-6.23Q584.30-5.74 584.36-5.17L584.36-5.17L584.36-5.17Q584.43-4.61 584.58-4.05L584.58-4.05L584.58-4.05Q584.73-3.49 584.97-2.98L584.97-2.98L584.97-2.98Q585.21-2.47 585.57-2.08L585.57-2.08L585.57-2.08Q585.93-1.69 586.42-1.45L586.42-1.45L586.42-1.45Q586.90-1.21 587.52-1.21L587.52-1.21L587.52-1.21Q588.17-1.21 588.66-1.44L588.66-1.44L588.66-1.44Q589.16-1.68 589.52-2.06L589.52-2.06L589.52-2.06Q589.88-2.45 590.11-2.95L590.11-2.95L590.11-2.95Q590.35-3.46 590.49-4.02L590.49-4.02L590.49-4.02Q590.64-4.58 590.70-5.15L590.70-5.15L590.70-5.15Q590.76-5.71 590.76-6.23" fill="#51cacc" stroke="none" stroke-width="none" transform="translate(-345.5800356864929,7.094220907055601)" style="fill: rgb(81, 202, 204);"></path></g><g class="path" style="transform: scale(1); transform-origin: 260.995px -1.39078px; animation: 1s linear -0.0942857s infinite normal forwards running beat-edd8823a-9da8-48f0-a28a-26c0fd05a4fe;"><path d="M607.64-10.97L607.64 0L604.00 0L604.00-10.97L601.75-10.97L601.75-12.41L604.00-12.41L604.00-16.97L607.64-16.97L607.64-12.41L611.40-12.41L611.40-10.97L607.64-10.97" fill="#51cacc" stroke="none" stroke-width="none" transform="translate(-345.5800356864929,7.094220907055601)" style="fill: rgb(157, 248, 113);"></path></g><g class="path" style="transform: scale(1); transform-origin: 273.145px 0.864222px; animation: 1s linear -0.0808163s infinite normal forwards running beat-edd8823a-9da8-48f0-a28a-26c0fd05a4fe;"><path d="M625.65-6.23L625.65-6.23L625.65-6.23Q625.65-5.26 625.39-4.42L625.39-4.42L625.39-4.42Q625.13-3.57 624.67-2.85L624.67-2.85L624.67-2.85Q624.22-2.13 623.57-1.55L623.57-1.55L623.57-1.55Q622.93-0.98 622.16-0.58L622.16-0.58L622.16-0.58Q621.39-0.18 620.52 0.03L620.52 0.03L620.52 0.03Q619.64 0.25 618.72 0.25L618.72 0.25L618.72 0.25Q617.79 0.25 616.92 0.03L616.92 0.03L616.92 0.03Q616.05-0.18 615.29-0.58L615.29-0.58L615.29-0.58Q614.52-0.98 613.87-1.55L613.87-1.55L613.87-1.55Q613.23-2.13 612.77-2.85L612.77-2.85L612.77-2.85Q612.32-3.57 612.06-4.42L612.06-4.42L612.06-4.42Q611.80-5.27 611.80-6.23L611.80-6.23L611.80-6.23Q611.80-7.19 612.06-8.04L612.06-8.04L612.06-8.04Q612.32-8.89 612.77-9.61L612.77-9.61L612.77-9.61Q613.23-10.33 613.87-10.91L613.87-10.91L613.87-10.91Q614.52-11.48 615.29-11.88L615.29-11.88L615.29-11.88Q616.05-12.28 616.92-12.49L616.92-12.49L616.92-12.49Q617.79-12.71 618.72-12.71L618.72-12.71L618.72-12.71Q619.64-12.71 620.52-12.49L620.52-12.49L620.52-12.49Q621.39-12.28 622.16-11.88L622.16-11.88L622.16-11.88Q622.93-11.48 623.57-10.91L623.57-10.91L623.57-10.91Q624.22-10.33 624.67-9.61L624.67-9.61L624.67-9.61Q625.13-8.89 625.39-8.04L625.39-8.04L625.39-8.04Q625.65-7.19 625.65-6.23zM621.95-6.23L621.95-6.23L621.95-6.23Q621.95-6.75 621.89-7.32L621.89-7.32L621.89-7.32Q621.83-7.90 621.69-8.45L621.69-8.45L621.69-8.45Q621.55-9.00 621.31-9.51L621.31-9.51L621.31-9.51Q621.07-10.02 620.72-10.40L620.72-10.40L620.72-10.40Q620.36-10.79 619.87-11.02L619.87-11.02L619.87-11.02Q619.37-11.25 618.72-11.25L618.72-11.25L618.72-11.25Q618.09-11.25 617.61-11.01L617.61-11.01L617.61-11.01Q617.13-10.77 616.77-10.38L616.77-10.38L616.77-10.38Q616.41-9.99 616.17-9.47L616.17-9.47L616.17-9.47Q615.92-8.96 615.77-8.41L615.77-8.41L615.77-8.41Q615.62-7.85 615.56-7.29L615.56-7.29L615.56-7.29Q615.50-6.72 615.50-6.23L615.50-6.23L615.50-6.23Q615.50-5.74 615.56-5.17L615.56-5.17L615.56-5.17Q615.62-4.61 615.77-4.05L615.77-4.05L615.77-4.05Q615.92-3.49 616.17-2.98L616.17-2.98L616.17-2.98Q616.41-2.47 616.77-2.08L616.77-2.08L616.77-2.08Q617.13-1.69 617.61-1.45L617.61-1.45L617.61-1.45Q618.09-1.21 618.72-1.21L618.72-1.21L618.72-1.21Q619.36-1.21 619.86-1.44L619.86-1.44L619.86-1.44Q620.35-1.68 620.71-2.06L620.71-2.06L620.71-2.06Q621.07-2.45 621.31-2.95L621.31-2.95L621.31-2.95Q621.54-3.46 621.69-4.02L621.69-4.02L621.69-4.02Q621.83-4.58 621.89-5.15L621.89-5.15L621.89-5.15Q621.95-5.71 621.95-6.23" fill="#51cacc" stroke="none" stroke-width="none" transform="translate(-345.5800356864929,7.094220907055601)" style="fill: rgb(224, 255, 119);"></path></g><g class="path" style="transform: scale(1); transform-origin: 290.405px -1.96578px; animation: 1s linear -0.0673469s infinite normal forwards running beat-edd8823a-9da8-48f0-a28a-26c0fd05a4fe;"><path d="M637.80-14.35L637.80 0L634.17 0L634.17-18.12L635.56-18.12L637.80-14.35" fill="#51cacc" stroke="none" stroke-width="none" transform="translate(-345.5800356864929,7.094220907055601)" style="fill: rgb(222, 157, 214);"></path></g><g class="path" style="transform: scale(1); transform-origin: 301.425px 0.864222px; animation: 1s linear -0.0538776s infinite normal forwards running beat-edd8823a-9da8-48f0-a28a-26c0fd05a4fe;"><path d="M653.93-6.23L653.93-6.23L653.93-6.23Q653.93-5.26 653.67-4.42L653.67-4.42L653.67-4.42Q653.42-3.57 652.96-2.85L652.96-2.85L652.96-2.85Q652.50-2.13 651.86-1.55L651.86-1.55L651.86-1.55Q651.21-0.98 650.44-0.58L650.44-0.58L650.44-0.58Q649.68-0.18 648.80 0.03L648.80 0.03L648.80 0.03Q647.93 0.25 647.00 0.25L647.00 0.25L647.00 0.25Q646.08 0.25 645.21 0.03L645.21 0.03L645.21 0.03Q644.34-0.18 643.57-0.58L643.57-0.58L643.57-0.58Q642.80-0.98 642.16-1.55L642.16-1.55L642.16-1.55Q641.51-2.13 641.06-2.85L641.06-2.85L641.06-2.85Q640.60-3.57 640.34-4.42L640.34-4.42L640.34-4.42Q640.08-5.27 640.08-6.23L640.08-6.23L640.08-6.23Q640.08-7.19 640.34-8.04L640.34-8.04L640.34-8.04Q640.60-8.89 641.06-9.61L641.06-9.61L641.06-9.61Q641.51-10.33 642.16-10.91L642.16-10.91L642.16-10.91Q642.80-11.48 643.57-11.88L643.57-11.88L643.57-11.88Q644.34-12.28 645.21-12.49L645.21-12.49L645.21-12.49Q646.08-12.71 647.00-12.71L647.00-12.71L647.00-12.71Q647.93-12.71 648.80-12.49L648.80-12.49L648.80-12.49Q649.68-12.28 650.44-11.88L650.44-11.88L650.44-11.88Q651.21-11.48 651.86-10.91L651.86-10.91L651.86-10.91Q652.50-10.33 652.96-9.61L652.96-9.61L652.96-9.61Q653.42-8.89 653.67-8.04L653.67-8.04L653.67-8.04Q653.93-7.19 653.93-6.23zM650.24-6.23L650.24-6.23L650.24-6.23Q650.24-6.75 650.18-7.32L650.18-7.32L650.18-7.32Q650.12-7.90 649.98-8.45L649.98-8.45L649.98-8.45Q649.84-9.00 649.60-9.51L649.60-9.51L649.60-9.51Q649.35-10.02 649-10.40L649-10.40L649-10.40Q648.65-10.79 648.15-11.02L648.15-11.02L648.15-11.02Q647.66-11.25 647.00-11.25L647.00-11.25L647.00-11.25Q646.38-11.25 645.90-11.01L645.90-11.01L645.90-11.01Q645.41-10.77 645.05-10.38L645.05-10.38L645.05-10.38Q644.69-9.99 644.45-9.47L644.45-9.47L644.45-9.47Q644.21-8.96 644.06-8.41L644.06-8.41L644.06-8.41Q643.91-7.85 643.84-7.29L643.84-7.29L643.84-7.29Q643.78-6.72 643.78-6.23L643.78-6.23L643.78-6.23Q643.78-5.74 643.84-5.17L643.84-5.17L643.84-5.17Q643.91-4.61 644.06-4.05L644.06-4.05L644.06-4.05Q644.21-3.49 644.45-2.98L644.45-2.98L644.45-2.98Q644.69-2.47 645.05-2.08L645.05-2.08L645.05-2.08Q645.41-1.69 645.90-1.45L645.90-1.45L645.90-1.45Q646.38-1.21 647.00-1.21L647.00-1.21L647.00-1.21Q647.65-1.21 648.14-1.44L648.14-1.44L648.14-1.44Q648.63-1.68 648.99-2.06L648.99-2.06L648.99-2.06Q649.35-2.45 649.59-2.95L649.59-2.95L649.59-2.95Q649.83-3.46 649.97-4.02L649.97-4.02L649.97-4.02Q650.12-4.58 650.18-5.15L650.18-5.15L650.18-5.15Q650.24-5.71 650.24-6.23" fill="#51cacc" stroke="none" stroke-width="none" transform="translate(-345.5800356864929,7.094220907055601)" style="fill: rgb(255, 112, 142);"></path></g><g class="path" style="transform: scale(1); transform-origin: 316.535px 3.60422px; animation: 1s linear -0.0404082s infinite normal forwards running beat-edd8823a-9da8-48f0-a28a-26c0fd05a4fe;"><path d="M668.71-12.41L668.71-1.49L668.71-1.49Q668.71-0.01 668.27 1.30L668.27 1.30L668.27 1.30Q667.83 2.61 666.99 3.59L666.99 3.59L666.99 3.59Q666.16 4.58 664.94 5.15L664.94 5.15L664.94 5.15Q663.72 5.73 662.16 5.73L662.16 5.73L662.16 5.73Q661.30 5.73 660.42 5.53L660.42 5.53L660.42 5.53Q659.55 5.34 658.77 4.94L658.77 4.94L658.77 4.94Q657.99 4.53 657.37 3.92L657.37 3.92L657.37 3.92Q656.76 3.30 656.40 2.46L656.40 2.46L657.97 1.87L657.97 1.87Q658.17 2.40 658.50 2.84L658.50 2.84L658.50 2.84Q658.83 3.28 659.26 3.59L659.26 3.59L659.26 3.59Q659.69 3.91 660.20 4.09L660.20 4.09L660.20 4.09Q660.72 4.26 661.29 4.26L661.29 4.26L661.29 4.26Q662.36 4.26 663.09 3.82L663.09 3.82L663.09 3.82Q663.81 3.38 664.25 2.67L664.25 2.67L664.25 2.67Q664.69 1.97 664.89 1.07L664.89 1.07L664.89 1.07Q665.08 0.17 665.08-0.75L665.08-0.75L665.08-1.48L665.08-1.48Q664.44-0.60 663.53-0.18L663.53-0.18L663.53-0.18Q662.62 0.25 661.54 0.25L661.54 0.25L661.54 0.25Q660.12 0.25 659.00-0.26L659.00-0.26L659.00-0.26Q657.88-0.76 657.11-1.64L657.11-1.64L657.11-1.64Q656.34-2.51 655.93-3.70L655.93-3.70L655.93-3.70Q655.52-4.88 655.52-6.23L655.52-6.23L655.52-6.23Q655.52-7.58 655.93-8.77L655.93-8.77L655.93-8.77Q656.34-9.95 657.11-10.82L657.11-10.82L657.11-10.82Q657.88-11.70 659.00-12.20L659.00-12.20L659.00-12.20Q660.12-12.71 661.54-12.71L661.54-12.71L661.54-12.71Q662.26-12.71 662.91-12.49L662.91-12.49L662.91-12.49Q663.56-12.28 664.10-11.89L664.10-11.89L664.10-11.89Q664.64-11.49 665.05-10.94L665.05-10.94L665.05-10.94Q665.47-10.39 665.70-9.71L665.70-9.71L667.32-12.41L668.71-12.41zM665.06-6.23L665.06-6.23L665.06-6.23Q665.06-6.71 665.01-7.25L665.01-7.25L665.01-7.25Q664.96-7.79 664.84-8.31L664.84-8.31L664.84-8.31Q664.73-8.84 664.52-9.32L664.52-9.32L664.52-9.32Q664.31-9.80 663.98-10.17L663.98-10.17L663.98-10.17Q663.65-10.54 663.19-10.75L663.19-10.75L663.19-10.75Q662.73-10.97 662.12-10.97L662.12-10.97L662.12-10.97Q661.50-10.97 661.05-10.75L661.05-10.75L661.05-10.75Q660.60-10.53 660.28-10.16L660.28-10.16L660.28-10.16Q659.96-9.79 659.75-9.30L659.75-9.30L659.75-9.30Q659.54-8.82 659.42-8.29L659.42-8.29L659.42-8.29Q659.30-7.77 659.25-7.23L659.25-7.23L659.25-7.23Q659.21-6.70 659.21-6.23L659.21-6.23L659.21-6.23Q659.21-5.76 659.25-5.22L659.25-5.22L659.25-5.22Q659.30-4.68 659.42-4.16L659.42-4.16L659.42-4.16Q659.54-3.63 659.75-3.15L659.75-3.15L659.75-3.15Q659.96-2.66 660.28-2.29L660.28-2.29L660.28-2.29Q660.60-1.92 661.05-1.70L661.05-1.70L661.05-1.70Q661.50-1.48 662.12-1.48L662.12-1.48L662.12-1.48Q662.67-1.48 663.11-1.71L663.11-1.71L663.11-1.71Q663.54-1.94 663.87-2.33L663.87-2.33L663.87-2.33Q664.20-2.72 664.43-3.21L664.43-3.21L664.43-3.21Q664.65-3.71 664.79-4.23L664.79-4.23L664.79-4.23Q664.93-4.76 665.00-5.28L665.00-5.28L665.00-5.28Q665.06-5.80 665.06-6.23" fill="#51cacc" stroke="none" stroke-width="none" transform="translate(-345.5800356864929,7.094220907055601)" style="fill: rgb(81, 202, 204);"></path></g><g class="path" style="transform: scale(1); transform-origin: 327.99px -8.30578px; animation: 1s linear -0.0269388s infinite normal forwards running beat-edd8823a-9da8-48f0-a28a-26c0fd05a4fe;"><path d="M675.55-15.40L675.55-15.40L675.55-15.40Q675.55-15.00 675.40-14.63L675.40-14.63L675.40-14.63Q675.24-14.27 674.97-14.00L674.97-14.00L674.97-14.00Q674.71-13.73 674.34-13.57L674.34-13.57L674.34-13.57Q673.98-13.42 673.57-13.42L673.57-13.42L673.57-13.42Q673.16-13.42 672.80-13.57L672.80-13.57L672.80-13.57Q672.44-13.73 672.17-14.00L672.17-14.00L672.17-14.00Q671.90-14.27 671.75-14.63L671.75-14.63L671.75-14.63Q671.59-15.00 671.59-15.40L671.59-15.40L671.59-15.40Q671.59-15.81 671.75-16.17L671.75-16.17L671.75-16.17Q671.90-16.53 672.17-16.80L672.17-16.80L672.17-16.80Q672.44-17.07 672.80-17.23L672.80-17.23L672.80-17.23Q673.16-17.38 673.57-17.38L673.57-17.38L673.57-17.38Q673.98-17.38 674.34-17.23L674.34-17.23L674.34-17.23Q674.71-17.07 674.97-16.80L674.97-16.80L674.97-16.80Q675.24-16.53 675.40-16.17L675.40-16.17L675.40-16.17Q675.55-15.81 675.55-15.40" fill="#51cacc" stroke="none" stroke-width="none" transform="translate(-345.5800356864929,7.094220907055601)" style="fill: rgb(157, 248, 113);"></path></g><g class="path" style="transform: scale(1); transform-origin: 327.99px 0.894222px; animation: 1s linear -0.0134694s infinite normal forwards running beat-edd8823a-9da8-48f0-a28a-26c0fd05a4fe;"><path d="M675.39-12.40L675.39 0L671.75 0L671.75-12.40L675.39-12.40" fill="#51cacc" stroke="none" stroke-width="none" transform="translate(-345.5800356864929,7.094220907055601)" style="fill: rgb(224, 255, 119);"></path></g><g class="path" style="transform: scale(1); transform-origin: 339.195px 2.05922px; animation: 1s linear 0s infinite normal forwards running beat-edd8823a-9da8-48f0-a28a-26c0fd05a4fe;"><path d="M691.12-7.11L691.12-7.11L691.12-7.11Q691.12-5.85 690.81-4.49L690.81-4.49L690.81-4.49Q690.51-3.13 689.96-1.82L689.96-1.82L689.96-1.82Q689.41-0.50 688.65 0.65L688.65 0.65L688.65 0.65Q687.89 1.80 686.97 2.64L686.97 2.64L685.61 1.90L685.61 1.90Q685.90 1.36 686.16 0.70L686.16 0.70L686.16 0.70Q686.42 0.03 686.62-0.71L686.62-0.71L686.62-0.71Q686.83-1.46 687.00-2.26L687.00-2.26L687.00-2.26Q687.17-3.05 687.28-3.83L687.28-3.83L687.28-3.83Q687.39-4.61 687.45-5.34L687.45-5.34L687.45-5.34Q687.51-6.08 687.51-6.71L687.51-6.71L687.51-6.71Q687.51-7.13 687.48-7.61L687.48-7.61L687.48-7.61Q687.45-8.09 687.34-8.57L687.34-8.57L687.34-8.57Q687.24-9.04 687.07-9.49L687.07-9.49L687.07-9.49Q686.90-9.93 686.61-10.26L686.61-10.26L686.61-10.26Q686.33-10.59 685.93-10.80L685.93-10.80L685.93-10.80Q685.52-11 684.98-11L684.98-11L684.98-11Q684.44-11 684.02-10.76L684.02-10.76L684.02-10.76Q683.60-10.52 683.28-10.12L683.28-10.12L683.28-10.12Q682.96-9.73 682.73-9.23L682.73-9.23L682.73-9.23Q682.49-8.72 682.35-8.19L682.35-8.19L682.35-8.19Q682.20-7.66 682.14-7.14L682.14-7.14L682.14-7.14Q682.08-6.63 682.08-6.22L682.08-6.22L682.08 0L678.43 0L678.43-12.41L679.83-12.41L681.50-9.52L681.50-9.52Q681.80-10.24 682.25-10.83L682.25-10.83L682.25-10.83Q682.70-11.42 683.27-11.84L683.27-11.84L683.27-11.84Q683.84-12.26 684.53-12.48L684.53-12.48L684.53-12.48Q685.22-12.71 686.03-12.71L686.03-12.71L686.03-12.71Q687.32-12.71 688.27-12.29L688.27-12.29L688.27-12.29Q689.23-11.87 689.86-11.12L689.86-11.12L689.86-11.12Q690.50-10.38 690.81-9.35L690.81-9.35L690.81-9.35Q691.12-8.33 691.12-7.11" fill="#51cacc" stroke="none" stroke-width="none" transform="translate(-345.5800356864929,7.094220907055601)" style="fill: rgb(222, 157, 214);"></path></g></g>
</g>
</g>
<style id="beat-edd8823a-9da8-48f0-a28a-26c0fd05a4fe" data-anikit="">@keyframes beat-edd8823a-9da8-48f0-a28a-26c0fd05a4fe
{
  0% {
    animation-timing-function: cubic-bezier(0.1028,0.2484,0.1372,0.849);
    transform: scale(1);
  }
  34% {
    animation-timing-function: cubic-bezier(0.7116,0.2095,0.8159,0.6876);
    transform: scale(1.2);
  }
  68% {
    animation-timing-function: cubic-bezier(0.1475,0.2888,0.294,0.883);
    transform: scale(1.0268);
  }
  84% {
    animation-timing-function: cubic-bezier(0.8176,0.2193,0.867,0.6889);
    transform: scale(1.0932);
  }
  100% {
    transform: scale(1);
  }
}</style></svg>